<svg version="1.1" id="Layer_1" xmlns="http://www.w3.org/2000/svg" xmlns:xlink="http://www.w3.org/1999/xlink" x="0px" y="0px"
	 width="100%" viewBox="0 0 710 709" enable-background="new 0 0 710 709" xml:space="preserve">
<path fill="#D4D2BD" opacity="1.000000" stroke="none" 
	d="
M711.000000,318.000000 
	C711.000000,342.687561 711.000000,367.375122 710.661743,392.188568 
	C709.882812,393.482544 709.191284,394.620728 709.047729,395.824249 
	C708.581543,399.732758 708.721741,403.752136 707.903076,407.573395 
	C704.322144,424.287201 701.425720,441.226776 696.549255,457.567688 
	C685.869690,493.354706 669.755554,526.651001 648.335388,557.394470 
	C634.559509,577.166443 619.444641,595.696655 601.571167,611.869019 
	C591.884827,620.633484 582.382690,629.755127 571.824036,637.365173 
	C556.768005,648.216553 541.280029,658.645325 525.136108,667.767273 
	C503.743622,679.854675 480.948059,689.175354 457.249725,695.818420 
	C443.893799,699.562439 430.207733,702.182434 416.594330,704.932129 
	C409.445221,706.376099 402.124817,706.961060 394.904694,708.081543 
	C394.187805,708.192749 393.631073,709.335876 393.000000,710.000000 
	C368.645782,710.000000 344.291534,710.000000 319.802490,709.656555 
	C318.828094,708.877808 318.023804,708.163635 317.143341,708.052307 
	C311.167633,707.296875 305.062225,707.186035 299.210907,705.900757 
	C282.654297,702.264160 266.010254,698.816101 249.747894,694.096985 
	C223.408173,686.453674 198.631638,675.021851 174.990738,661.051514 
	C149.831528,646.183960 126.652573,628.706665 106.086716,608.029602 
	C94.900398,596.782837 84.590782,584.562988 74.745728,572.102478 
	C46.748955,536.668152 26.803623,496.918457 14.844564,453.462006 
	C9.630252,434.514404 6.969995,414.865509 3.049988,395.555359 
	C2.856872,394.604065 1.705279,393.847321 0.999999,393.000000 
	C1.000000,370.645782 1.000000,348.291534 1.347805,325.798096 
	C2.086665,324.452606 2.642130,323.273132 2.843844,322.036011 
	C5.406507,306.319000 6.971915,290.371490 10.603394,274.908203 
	C28.384258,199.194962 67.179092,135.996002 126.059044,85.315552 
	C169.353546,48.050163 219.076645,22.982450 274.743805,10.125939 
	C288.831268,6.872391 303.317902,5.354673 317.602509,2.929605 
	C318.485443,2.779714 319.204620,1.665530 320.000000,0.999998 
	C343.687561,1.000000 367.375122,1.000000 391.195740,1.346288 
	C395.423767,2.460889 399.507294,3.297376 403.615845,3.984248 
	C414.339752,5.777074 425.319885,6.606972 435.750366,9.458076 
	C453.532349,14.318691 471.386383,19.407373 488.439880,26.304768 
	C505.872955,33.355679 522.975464,41.696991 539.123840,51.317711 
	C555.195312,60.892601 570.466614,72.060471 585.028931,83.840103 
	C596.849121,93.401596 607.156433,104.846230 618.016785,115.574966 
	C622.117615,119.626144 626.361206,123.669350 629.720276,128.309402 
	C640.042236,142.567566 650.866333,156.581161 659.803894,171.690308 
	C669.462402,188.018509 677.919678,205.164261 685.563538,222.541687 
	C691.163513,235.272812 695.068298,248.821655 698.891907,262.244385 
	C703.956787,280.024200 707.804443,298.108673 709.107849,316.638580 
	C709.142700,317.134308 710.343140,317.548035 711.000000,318.000000 
M383.505005,264.601776 
	C383.836548,264.112640 384.168060,263.623474 385.082794,263.059601 
	C385.773895,262.398254 386.464996,261.736938 387.662415,260.650482 
	C392.108612,256.686859 396.554779,252.723251 401.632599,248.719757 
	C402.454651,247.825089 403.276703,246.930435 404.727722,245.767288 
	C423.823181,233.398392 444.358246,226.618164 467.460052,228.868057 
	C492.696686,231.325897 513.165466,242.469681 528.497681,262.472168 
	C541.189514,279.030121 546.018311,298.171356 543.729004,318.833282 
	C543.108948,324.429810 540.481750,329.803894 538.271301,334.790558 
	C535.807800,333.838593 533.344299,332.886627 529.761047,331.501953 
	C529.761047,341.479156 529.761047,349.698883 529.108337,358.038574 
	C527.646118,359.985535 526.183960,361.932495 524.207703,364.221069 
	C523.129089,365.453888 522.050476,366.686707 520.319824,368.090881 
	C518.850342,369.707916 517.380859,371.324982 515.990967,372.982635 
	C515.990967,372.982635 515.936340,372.911865 515.267212,373.099091 
	C513.428589,374.149200 511.589935,375.199310 509.340546,375.653656 
	C502.794037,360.873291 496.247528,346.092926 489.701019,331.312592 
	C489.235046,331.297668 488.769073,331.282776 488.303101,331.267853 
	C486.767853,335.004822 485.232635,338.741760 483.284363,342.741516 
	C483.017731,343.475861 482.751099,344.210205 482.110901,345.508881 
	C480.901245,348.384277 479.691589,351.259644 478.042053,354.606445 
	C477.727966,356.083984 477.413849,357.561554 476.686218,359.616058 
	C472.518066,368.315369 468.349915,377.014709 464.181732,385.714050 
	C464.694580,386.189178 465.207458,386.664307 465.720306,387.139435 
	C467.065186,386.104828 468.881561,385.338562 469.655334,383.978973 
	C471.201050,381.263062 471.912476,378.067383 473.493530,375.378571 
	C474.313751,373.983734 476.210541,372.437622 477.697449,372.356171 
	C483.827148,372.020538 489.992004,372.079132 496.129578,372.335876 
	C497.421600,372.389893 499.193146,373.612610 499.801514,374.785553 
	C501.125305,377.337799 501.841766,380.205109 502.116211,382.995331 
	C497.764771,385.343628 493.510986,387.899078 489.045197,390.004944 
	C467.872559,399.988983 445.594025,402.971130 422.435181,400.314606 
	C420.511169,400.093903 418.503357,400.604004 416.534454,400.774567 
	C416.479248,401.251862 416.424042,401.729187 416.368805,402.206482 
	C417.796783,402.817383 419.190002,403.532166 420.658081,404.023193 
	C435.305389,408.922119 450.392670,409.557343 465.519318,407.702911 
	C479.457092,405.994263 492.925568,402.323944 505.683655,394.733704 
	C508.525330,392.643585 511.367035,390.553497 514.922424,388.343414 
	C519.666016,384.524048 524.409668,380.704681 529.858032,377.370758 
	C530.061584,380.550690 530.265137,383.730591 530.468689,386.910522 
	C531.045288,387.090576 531.621887,387.270630 532.198486,387.450684 
	C532.798950,385.978607 533.793640,384.540253 533.923035,383.027893 
	C534.259888,379.089447 534.217285,375.118591 534.947388,370.962463 
	C538.641113,366.631042 542.334839,362.299591 546.536316,358.404694 
	C554.377258,368.208954 562.218140,378.013245 570.059082,387.817505 
	C570.385437,387.675293 570.711853,387.533112 571.038208,387.390900 
	C571.038208,369.263947 571.038208,351.136993 571.038208,333.010010 
	C570.585571,332.779022 570.132935,332.548035 569.680237,332.317047 
	C569.005676,333.703369 567.771667,335.079590 567.746399,336.477631 
	C567.569214,346.281097 567.657898,356.089111 567.615234,365.895477 
	C567.609314,367.260864 567.349182,368.625122 567.206787,369.989899 
	C566.808716,370.122162 566.410706,370.254395 566.012634,370.386658 
	C560.226135,362.597992 554.439575,354.809357 549.381104,346.878021 
	C550.288940,345.321198 551.441833,343.856445 552.067017,342.193329 
	C558.536194,324.983887 560.571106,307.341095 556.111877,289.358002 
	C546.940979,252.373550 523.460693,229.168533 486.850433,219.588425 
	C465.791504,214.077774 444.847260,215.881439 424.741150,224.370193 
	C410.934204,230.199478 398.964478,238.679428 389.347473,251.136047 
	C388.256805,252.757187 387.166138,254.378311 385.845825,256.544312 
	C385.516479,257.259552 385.187134,257.974762 384.268372,259.003967 
	C383.548859,260.338379 382.829346,261.672760 381.958740,263.421509 
	C381.958740,263.421509 381.902893,263.858551 381.341156,264.106628 
	C381.164612,264.873138 380.988068,265.639679 380.811523,266.406189 
	C381.586243,265.956085 382.360931,265.505951 383.505005,264.601776 
M220.264740,231.004822 
	C219.827988,231.664917 219.391220,232.325012 218.363708,233.317581 
	C217.152313,235.390488 215.940903,237.463394 214.096771,239.829880 
	C211.127747,245.886810 208.158737,251.943726 204.950806,258.694061 
	C204.802246,259.411102 204.653687,260.128113 204.039978,261.223419 
	C203.710541,262.156281 203.381104,263.089172 202.588821,264.505798 
	C202.221893,266.000061 201.854980,267.494293 201.260330,269.808319 
	C201.207840,271.222076 201.155350,272.635834 200.583282,274.667969 
	C200.395782,280.775269 200.208282,286.882599 199.965057,293.672272 
	C200.004013,294.126282 200.042984,294.580322 199.712997,295.342926 
	C199.858337,295.873169 200.003662,296.403442 200.089325,297.624786 
	C200.133575,298.084229 200.177811,298.543701 200.085541,299.789429 
	C200.412537,301.515656 200.739532,303.241913 200.996506,305.817047 
	C202.265839,310.584839 203.535156,315.352631 204.851242,320.764343 
	C205.180267,321.539276 205.509293,322.314209 205.881775,323.728485 
	C205.971619,324.146271 206.061447,324.564056 205.790894,325.432098 
	C205.530396,325.717285 205.269897,326.002441 204.373947,325.969757 
	C193.258575,318.074280 177.895126,319.463776 167.429504,329.311157 
	C152.814163,343.063110 148.056519,363.061768 155.805618,381.788910 
	C158.092972,387.316742 162.544083,391.949219 165.940247,397.736115 
	C161.954651,405.616058 156.645462,397.406982 151.797958,398.979218 
	C151.565399,400.385773 151.306824,401.949707 151.029144,403.629211 
	C157.692490,406.262665 163.678635,405.267639 169.962738,402.720154 
	C171.194138,403.569702 172.425537,404.419250 173.909561,405.900574 
	C179.021866,409.223969 183.828659,413.206024 189.304428,415.745758 
	C204.972565,423.012817 221.586700,425.046906 238.822708,424.160767 
	C261.719727,422.983673 283.459534,417.648499 304.089722,407.807770 
	C320.099976,400.170807 334.577972,390.245819 347.813782,378.044678 
	C358.954041,388.998657 372.296295,389.420441 386.336731,385.865173 
	C387.660614,385.529968 388.565613,383.540527 389.665131,382.319153 
	C373.514343,386.973022 363.229340,385.454834 356.207245,376.735168 
	C349.998749,369.025757 349.360443,353.398682 355.083984,344.673309 
	C363.623779,331.654724 375.109100,334.503113 387.031036,339.580627 
	C387.364166,337.465881 387.610535,335.901886 387.958679,333.691772 
	C383.517059,332.914429 379.486328,331.912659 375.398682,331.547272 
	C361.233887,330.281067 347.192383,339.390442 343.474274,352.006317 
	C341.161804,359.852692 342.466705,367.460754 344.207031,374.934143 
	C338.433716,378.585541 332.660400,382.236908 325.781158,386.587738 
	C325.781158,383.432709 325.781494,381.678406 325.781158,379.924133 
	C325.778442,365.989349 325.831268,352.054077 325.702057,338.120483 
	C325.686005,336.389343 324.703278,334.667206 323.264465,332.673218 
	C321.339111,332.673218 319.413757,332.673218 317.118500,332.673218 
	C317.118500,350.808990 317.118500,368.357483 317.130798,386.616394 
	C318.696136,387.275024 320.261444,387.933655 323.221710,389.179199 
	C313.186829,393.607666 304.154114,398.066193 294.783325,401.637848 
	C269.935608,411.108398 244.180023,414.293243 217.797211,410.897491 
	C203.676147,409.079956 190.964615,403.470825 179.507843,393.777496 
	C178.726013,393.516113 177.944199,393.254730 177.104309,392.141144 
	C177.491516,385.714600 178.081329,379.292480 178.221191,372.860565 
	C178.466080,361.597504 178.434845,350.328430 179.172348,338.934113 
	C186.581604,335.018188 193.882660,330.670868 202.694885,333.920532 
	C202.689301,350.077911 202.774124,366.236267 202.607147,382.391968 
	C202.570755,385.913361 203.699524,387.039764 207.171585,386.949402 
	C215.328140,386.737152 223.493439,386.815979 231.654816,386.855347 
	C235.238800,386.872620 236.366226,385.237976 235.441940,381.454346 
	C227.311691,382.136139 219.296249,382.808289 210.751968,383.524780 
	C210.751968,376.845886 211.026932,370.873749 210.658463,364.941559 
	C210.398743,360.760284 212.023590,359.772034 215.815887,360.018982 
	C220.129929,360.299866 224.476349,360.083893 228.808685,360.083893 
	C228.881561,359.310394 228.954437,358.536865 229.027328,357.763367 
	C227.395752,357.429291 225.768036,356.826965 224.132019,356.803497 
	C210.783157,356.611938 210.782700,356.644806 210.750885,343.576477 
	C210.733841,336.577393 211.593369,335.674774 218.641708,335.662598 
	C220.122040,335.660034 221.605103,336.028107 223.083282,336.249542 
	C226.797684,336.805939 230.510025,337.376099 234.513229,337.984863 
	C234.795502,336.080261 235.004318,334.671265 235.328781,332.481964 
	C226.957443,332.481964 219.008331,332.481964 210.965454,331.872345 
	C210.583160,330.919128 210.200882,329.965881 209.934723,328.319641 
	C209.622330,327.212280 209.309937,326.104919 209.029099,324.307983 
	C208.962067,323.852783 208.895035,323.397583 208.916916,322.246765 
	C208.646210,321.159027 208.375519,320.071259 208.145721,318.048523 
	C208.303741,309.035461 208.461761,300.022430 208.970535,290.268890 
	C209.613525,286.512787 210.256531,282.756683 211.133438,278.311951 
	C211.525665,276.916107 211.917892,275.520233 212.652328,273.659851 
	C212.749191,273.097290 212.846054,272.534698 213.392105,271.613403 
	C213.542419,271.075836 213.692719,270.538269 214.089264,269.278381 
	C216.777710,262.992188 219.466141,256.705963 222.762573,250.096024 
	C223.534454,248.739456 224.306335,247.382889 225.508621,245.719330 
	C225.708984,245.242416 225.909363,244.765503 226.672714,244.009094 
	C227.077911,243.329300 227.483093,242.649521 228.432465,241.596985 
	C229.980057,239.463959 231.527649,237.330933 233.649521,234.841400 
	C241.034790,228.689651 247.943741,221.822693 255.897949,216.525223 
	C276.661987,202.696411 299.869385,199.109879 324.139679,203.234314 
	C345.740265,206.905060 363.968323,217.476471 379.520569,232.803467 
	C381.111450,234.371323 383.049500,235.586884 385.754669,237.686234 
	C385.390503,235.707794 385.413391,235.341904 385.259399,235.080063 
	C384.585266,233.933884 383.908813,232.783508 383.145905,231.695892 
	C364.561554,205.201691 338.170776,193.118042 306.719971,191.221176 
	C286.132080,189.979477 266.548798,194.817352 249.127518,205.831284 
	C240.297104,211.414001 232.845139,219.177124 224.497131,226.254074 
	C224.308716,226.451675 224.139893,226.664780 223.410843,227.215195 
	C222.552872,228.422821 221.694901,229.630432 220.828308,230.937180 
	C220.828308,230.937180 220.866562,230.846497 220.264740,231.004822 
M613.655029,347.845551 
	C613.655029,347.845551 613.647461,347.827393 612.960449,348.099091 
	C610.896973,350.353394 608.833435,352.607697 606.161316,355.105896 
	C605.485474,355.965027 604.809692,356.824127 603.389404,357.404175 
	C603.147949,357.294769 602.906555,357.185394 602.729248,356.131531 
	C602.729248,348.516937 602.729248,340.902374 602.729248,332.578949 
	C599.806519,332.750275 597.409363,332.890778 594.326477,333.307404 
	C594.149902,333.933167 593.820374,334.558624 593.819092,335.184692 
	C593.786560,351.163849 593.768616,367.143158 593.830994,383.122070 
	C593.834900,384.128906 594.511536,385.133087 594.990845,386.008545 
	C594.990845,386.008545 594.861572,386.125031 595.132507,386.751831 
	C597.442200,386.513184 599.751831,386.274536 602.606750,385.400360 
	C602.592285,377.541412 602.577881,369.682465 603.315247,361.875763 
	C609.764282,369.194031 616.236023,376.492432 622.653992,383.837830 
	C626.619873,388.376770 629.573547,388.940521 635.880676,385.903473 
	C627.236023,377.281281 618.665161,368.796906 610.202637,360.205750 
	C609.211975,359.200073 608.819031,357.605682 608.828064,356.194946 
	C610.575439,354.544373 612.322815,352.893829 614.610291,350.992706 
	C615.112976,350.395813 615.615662,349.798889 616.726624,348.975433 
	C617.569153,348.008972 618.411682,347.042511 619.848938,345.800537 
	C622.826843,342.774597 625.804749,339.748657 629.225647,336.601166 
	C629.879150,335.863647 630.532715,335.126129 631.634583,334.329926 
	C631.828003,333.936920 632.021423,333.543915 632.214844,333.150909 
	C631.799072,333.054138 631.383362,332.957367 630.244202,332.628448 
	C629.141541,333.039185 628.038879,333.449921 626.352234,334.050110 
	C625.880615,334.695862 625.408997,335.341583 624.359985,336.317291 
	C621.819092,339.057159 619.278259,341.797028 616.134705,344.815399 
	C615.299988,345.817352 614.465210,346.819305 613.655029,347.845551 
M281.043671,450.984314 
	C277.993652,447.564423 274.943634,444.144531 271.749207,440.562744 
	C274.443604,437.454559 276.907623,434.612122 279.371674,431.769684 
	C278.938232,431.334900 278.504822,430.900146 278.071381,430.465363 
	C274.105164,434.146790 270.138947,437.828217 266.172729,441.509644 
	C264.992279,437.727325 264.906616,434.779694 265.020874,431.839813 
	C265.103882,429.704376 264.409332,428.684753 261.467743,428.987457 
	C260.386139,429.249817 258.345428,429.641785 258.360840,429.755951 
	C259.052826,434.878387 259.925476,439.976440 260.925476,445.944794 
	C260.956451,448.299164 260.987457,450.653503 260.395691,453.456665 
	C260.019684,454.900543 259.307343,456.347137 259.319122,457.787842 
	C259.451599,474.016113 255.251831,489.354889 250.191162,504.573700 
	C249.684113,506.098572 250.557083,508.847168 251.762970,510.059937 
	C265.738281,524.114685 282.561768,527.857788 300.757904,520.801392 
	C314.641449,515.417358 327.896759,508.307953 341.145538,501.416229 
	C363.632507,489.719147 386.995361,481.854858 412.735199,483.003082 
	C423.522858,483.484283 433.820374,486.095947 443.451508,490.865143 
	C448.630707,493.429810 453.123444,497.235565 452.986420,503.773224 
	C452.852692,510.154846 449.147491,514.793457 443.877472,517.790833 
	C436.226044,522.142822 427.783600,522.913696 419.190399,521.524841 
	C407.381561,519.616150 395.608276,517.488037 383.802155,515.561584 
	C382.421478,515.336243 380.929688,515.791748 379.489410,515.931641 
	C380.284760,517.655945 381.128815,518.431091 382.123352,518.794312 
	C389.623932,521.533997 397.016663,524.715332 404.711334,526.738586 
	C413.488098,529.046448 422.536469,531.684753 431.476959,531.721802 
	C449.863251,531.798157 468.657745,517.982361 464.696503,494.035156 
	C462.423615,480.294800 463.857635,465.912598 463.972778,451.822205 
	C464.010468,447.208893 465.343109,442.618988 465.688263,437.988861 
	C465.819946,436.222626 464.843719,434.373779 464.372437,432.562561 
	C462.837311,433.372223 461.272583,434.131439 459.777618,435.009552 
	C458.810883,435.577393 457.946259,436.319153 456.766541,436.329529 
	C454.020844,429.399323 447.552490,427.180115 436.519806,429.649841 
	C436.519806,435.674866 436.389832,441.816010 436.591949,447.946228 
	C436.660614,450.027374 437.567230,452.080902 438.090942,454.147034 
	C438.926849,452.114990 439.757172,450.080597 440.604858,448.053467 
	C440.727112,447.761108 440.932892,447.503662 441.110199,447.236298 
	C448.420807,446.212433 448.512512,446.264832 451.404419,454.166870 
	C450.430756,461.941742 449.457062,469.716614 448.434875,477.878754 
	C447.481323,477.510193 445.982422,476.958344 444.505554,476.352814 
	C442.817047,475.660461 441.194061,474.776886 439.463776,474.222351 
	C405.133972,463.220184 372.855042,469.992676 341.627686,485.619751 
	C326.620483,493.129761 311.937225,501.373657 296.570068,508.048523 
	C285.548035,512.836060 273.675507,513.452393 262.287231,507.759857 
	C259.645447,506.439331 258.951782,504.947479 259.933960,501.804962 
	C262.797791,492.642181 266.187805,483.435669 267.312988,474.000793 
	C268.285645,465.844879 266.439636,457.352844 265.860474,448.259338 
	C267.012329,446.645630 268.164215,445.031952 269.752869,442.806305 
	C271.632782,444.981781 272.903259,446.452026 274.311218,448.490295 
	C274.868774,449.003296 275.426331,449.516296 276.205383,450.593140 
	C277.059814,451.442169 277.914246,452.291168 278.986816,453.717590 
	C280.142578,453.749634 281.298370,453.781647 282.454132,453.813690 
	C282.080200,453.070038 281.706299,452.326385 281.043671,450.984314 
M81.188004,332.632111 
	C79.471428,332.699463 77.754845,332.766815 75.618988,332.630646 
	C75.143723,333.101105 74.668457,333.571594 73.879974,334.645203 
	C73.340103,336.117645 72.800240,337.590057 71.748589,339.382721 
	C71.594505,339.940857 71.440422,340.499023 70.966194,341.623474 
	C70.567421,342.612061 70.168648,343.600647 69.261604,345.034180 
	C68.590981,346.706604 67.920349,348.378998 66.937592,350.628723 
	C66.562744,351.640411 66.187904,352.652130 65.280724,354.104034 
	C64.515991,356.068848 63.751251,358.033630 62.783600,360.288666 
	C62.783600,360.288666 62.816341,360.641266 62.350807,360.984131 
	C62.116474,361.683380 61.882141,362.382629 61.194550,363.657410 
	C60.405499,365.658081 59.616447,367.658722 58.328434,370.120758 
	C57.524830,370.833160 56.721226,371.545532 55.813728,371.547180 
	C55.333874,370.723541 54.854019,369.899902 54.466999,368.493896 
	C54.049400,367.853882 53.631805,367.213837 53.124756,365.860352 
	C48.922695,356.628326 44.386402,347.528961 40.648487,338.112671 
	C38.529739,332.775299 35.458843,331.414886 30.133034,333.160645 
	C29.146399,349.993774 28.121910,366.927887 27.248665,383.869812 
	C27.201614,384.782654 28.423946,385.760925 29.055376,386.708740 
	C29.747553,385.611969 30.981024,384.547241 31.048151,383.413483 
	C31.717627,372.106110 32.187984,360.787048 32.734394,349.472260 
	C32.807240,347.963776 32.990425,346.460663 33.122513,344.955048 
	C33.511002,344.921295 33.899494,344.887543 34.287983,344.853790 
	C39.743961,356.542999 45.199936,368.232208 50.562553,380.504089 
	C50.965351,381.153900 51.368149,381.803680 51.804535,383.042664 
	C52.203590,383.694885 52.602642,384.347107 53.018948,385.579010 
	C53.790974,385.427826 54.562996,385.276642 55.770298,384.663361 
	C56.273499,383.288086 56.776699,381.912781 57.762230,380.166534 
	C58.012764,379.421143 58.263298,378.675751 58.912056,377.338837 
	C59.713501,375.420593 60.514942,373.502380 61.760654,371.172974 
	C62.010517,370.425201 62.260380,369.677429 62.883244,368.321655 
	C63.691784,366.407074 64.500328,364.492523 65.790138,362.106171 
	C66.158981,361.070648 66.527824,360.035156 67.129257,358.657501 
	C67.129257,358.657501 67.124748,358.243835 67.656250,357.853912 
	C68.295792,356.209473 68.935326,354.565002 69.927490,352.340393 
	C70.321091,351.293488 70.714684,350.246613 71.625206,348.797791 
	C72.281181,347.172943 72.937157,345.548096 73.874641,343.395935 
	C73.890823,343.197327 73.907013,342.998718 74.768127,343.070068 
	C75.373718,346.259521 75.979309,349.448975 76.379715,353.463318 
	C76.567169,357.304535 76.754616,361.145721 76.688080,365.726410 
	C77.016235,369.335968 77.344398,372.945496 77.559166,377.399414 
	C77.724594,380.417847 77.890022,383.436249 78.060417,386.545288 
	C81.025719,386.545288 83.397331,386.545288 86.158371,386.545288 
	C86.079979,384.838409 86.014542,383.413513 86.170937,381.348938 
	C85.964859,379.608490 85.758789,377.868042 85.691597,375.362244 
	C85.541000,374.607819 85.390404,373.853394 85.549713,372.337250 
	C85.314034,370.239044 85.078346,368.140869 84.956413,365.137238 
	C84.799461,362.119202 84.642509,359.101196 84.711975,355.190002 
	C84.305588,351.229553 83.899193,347.269135 83.678307,342.504181 
	C83.517838,339.654846 83.357368,336.805542 83.211731,333.274567 
	C82.817123,333.126862 82.422508,332.979156 81.188004,332.632111 
M653.947754,377.292297 
	C654.611511,375.714905 655.275208,374.137512 656.882507,372.492462 
	C662.472656,372.447235 668.087341,372.706940 673.645264,372.260620 
	C678.116760,371.901581 681.195740,373.095367 682.844849,378.094482 
	C683.428955,379.371490 684.013000,380.648529 684.565186,382.515686 
	C684.952332,383.188538 685.339417,383.861420 685.771790,385.046753 
	C686.109924,385.399689 686.448059,385.752625 687.183167,386.683289 
	C689.723999,386.807068 692.264832,386.930847 695.809265,387.103516 
	C694.664734,384.816376 694.038025,383.564178 693.298828,381.685455 
	C692.964172,381.149597 692.629578,380.613770 692.393860,379.510101 
	C691.985840,378.896881 691.577820,378.283661 691.104980,376.936829 
	C684.485657,361.727234 677.866333,346.517639 671.246948,331.308014 
	C670.774475,331.331940 670.302002,331.355865 669.829468,331.379791 
	C669.147400,333.117676 668.465332,334.855591 667.324158,336.961365 
	C667.081482,337.670471 666.838745,338.379578 666.181824,339.734039 
	C664.384399,344.023712 662.586975,348.313385 660.243469,353.040253 
	C659.492004,355.025940 658.740540,357.011627 657.603699,359.538940 
	C656.929810,361.139557 656.255859,362.740204 655.126221,364.763123 
	C654.848877,365.526459 654.571533,366.289764 653.918640,367.644501 
	C653.135437,369.531738 652.352234,371.418976 651.128784,373.739410 
	C650.879578,374.511902 650.630371,375.284424 650.012024,376.488831 
	C649.939575,376.855804 649.867065,377.222778 649.291260,378.037170 
	C648.636414,379.708344 647.981567,381.379517 647.005432,383.537415 
	C646.937256,383.917419 646.869141,384.297394 646.267761,385.003143 
	C646.672363,385.668884 647.077026,386.334625 647.481689,387.000397 
	C648.564026,386.318298 649.646301,385.636230 651.036255,384.479462 
	C651.085327,384.108917 651.134399,383.738373 651.695801,382.938690 
	C652.331055,381.272522 652.966248,379.606354 653.947754,377.292297 
M447.891479,355.500031 
	C447.891479,348.051483 447.891479,340.602905 447.891479,332.897400 
	C445.040833,332.897400 442.652802,332.897400 439.766144,332.897400 
	C439.766144,339.698273 439.903107,346.152496 439.657501,352.592133 
	C439.604553,353.980011 438.221466,356.458069 437.367035,356.495117 
	C430.116333,356.809418 422.846191,356.674744 415.117676,356.674744 
	C415.117676,348.315552 415.117676,340.713806 415.117676,332.942505 
	C412.236115,332.942505 409.847107,332.942505 407.026276,332.942505 
	C407.026276,350.089813 407.072479,366.865906 406.986969,383.641327 
	C406.970032,386.962677 409.038483,386.842072 411.288849,386.929901 
	C413.886292,387.031250 415.247589,386.294464 415.175598,383.273743 
	C414.994934,375.694550 415.115936,368.108154 415.115936,360.357361 
	C423.637024,360.357361 431.386444,360.357361 439.755066,360.357361 
	C439.755066,368.081604 439.895111,375.531189 439.690552,382.971344 
	C439.600677,386.239990 441.108643,386.833923 443.880554,386.926788 
	C446.855591,387.026459 448.011658,386.091400 447.949829,382.958160 
	C447.775848,374.141815 447.890198,365.319794 447.891479,355.500031 
M274.935242,366.489502 
	C278.945770,372.218109 282.962311,377.942566 286.964996,383.676636 
	C290.397278,388.593597 292.785400,389.091766 298.812592,385.855316 
	C291.987213,377.517365 285.203308,369.230072 278.004944,360.436462 
	C280.357819,359.663452 281.945099,359.269684 283.426605,358.630646 
	C287.477325,356.883392 291.094482,354.641693 292.486450,350.045074 
	C295.009491,341.713409 290.485535,334.708771 280.309082,333.376709 
	C272.682617,332.378448 264.820648,333.179596 256.977539,333.179596 
	C256.977539,350.899536 256.977539,368.646362 256.977539,386.428833 
	C259.711365,386.428833 262.103607,386.428833 264.917084,386.428833 
	C264.917084,377.911377 264.917084,369.797516 264.917084,361.787384 
	C269.959564,359.646790 272.443329,362.292572 274.935242,366.489502 
M134.652634,358.764374 
	C133.230942,358.079163 131.839233,356.889740 130.381943,356.803101 
	C125.984367,356.541626 121.561310,356.708740 116.692215,356.708740 
	C116.692215,351.758331 116.692825,347.626892 116.692078,343.495422 
	C116.690834,336.575470 117.564232,335.665161 124.593285,335.700165 
	C126.235977,335.708344 127.877403,336.127716 129.518005,336.367523 
	C133.222443,336.908997 136.926010,337.456451 140.957214,338.049652 
	C140.957214,335.886719 140.957214,334.336182 140.957214,332.891296 
	C130.060333,332.891296 119.490196,332.891296 108.475456,332.891296 
	C108.475456,350.221649 108.406479,367.161896 108.655357,384.097473 
	C108.669548,385.062653 111.260674,386.763153 112.692543,386.806793 
	C121.006119,387.060242 129.333176,386.823853 137.652603,386.951752 
	C141.994949,387.018524 142.110367,384.843567 141.186737,381.451080 
	C133.042496,382.151062 125.162918,382.828308 117.129745,383.518768 
	C117.129745,375.440277 117.129745,367.934235 117.129745,360.430298 
	C123.176132,360.114319 128.763733,359.822296 134.652634,358.764374 
M391.088959,454.295624 
	C395.176483,453.932251 400.206512,454.574829 401.568481,449.577179 
	C402.281708,446.960022 400.570587,443.682159 399.685944,439.405029 
	C402.764221,434.012177 400.343414,429.422394 392.377625,428.950684 
	C388.597839,428.726898 384.793762,428.912262 380.331116,428.912262 
	C380.331116,434.470856 380.244690,439.579224 380.348969,444.683685 
	C380.573608,455.682251 378.447937,454.212494 391.088959,454.295624 
M352.117493,450.809174 
	C351.453094,450.801025 350.786285,450.826080 350.124695,450.778931 
	C347.406616,450.585388 343.934326,452.055450 344.032776,446.863037 
	C344.131104,441.677704 347.645905,443.365112 350.319397,443.069916 
	C352.476990,442.831635 354.625916,442.514832 356.778687,442.232880 
	C356.722626,441.406830 356.666595,440.580750 356.610565,439.754700 
	C353.762085,439.754700 350.908783,439.651764 348.066559,439.785095 
	C345.477081,439.906586 344.013489,439.273438 344.047760,436.257690 
	C344.078979,433.510559 345.044342,432.292480 347.840118,432.413208 
	C350.492432,432.527771 353.170044,432.583160 355.802124,432.320099 
	C356.600311,432.240326 357.284027,431.014954 358.020172,430.314270 
	C357.267090,429.837128 356.523956,428.966064 355.759308,428.946777 
	C350.811829,428.821960 345.859650,428.882843 340.618591,428.882843 
	C340.618591,437.504639 340.618591,445.661957 340.618591,453.758575 
	C353.166809,455.430573 357.711334,454.707550 357.957825,450.798767 
	C356.297516,450.798767 354.656860,450.798767 352.117493,450.809174 
M412.472382,437.834900 
	C410.374420,443.123383 408.276459,448.411865 406.178467,453.700348 
	C406.895630,454.305389 407.612793,454.910400 408.329956,455.515442 
	C408.639648,454.398041 408.717133,453.139374 409.296967,452.186371 
	C412.928864,446.217102 423.083374,446.294434 426.891205,452.129211 
	C427.592804,453.204285 429.175690,453.704224 430.351776,454.469666 
	C430.643616,454.070526 430.935455,453.671417 431.227264,453.272278 
	C428.799957,447.846771 426.554138,442.329407 423.873322,437.032227 
	C422.402710,434.126373 420.198425,431.591858 418.324951,428.889862 
	C416.496277,431.646271 414.667633,434.402679 412.472382,437.834900 
M295.070648,431.372253 
	C291.748383,438.701599 288.426086,446.030914 285.103790,453.360229 
	C285.582336,453.764282 286.060883,454.168304 286.539429,454.572327 
	C287.645905,453.627869 289.339539,452.884460 289.745178,451.700012 
	C290.819244,448.563385 292.776215,447.720184 295.808228,448.098083 
	C297.447906,448.302490 299.154938,448.303436 300.794220,448.098114 
	C303.536102,447.754700 305.081696,448.788483 306.134766,451.361755 
	C306.673309,452.677826 308.148438,453.610596 309.660339,455.200409 
	C310.168762,453.566040 310.562164,452.998108 310.416687,452.666809 
	C307.148132,445.222382 303.993347,437.718964 300.411774,430.425720 
	C299.126404,427.808411 296.930298,428.381317 295.070648,431.372253 
M324.477997,432.412048 
	C332.807831,432.425507 332.807831,432.425507 333.689392,428.889679 
	C328.614502,428.889679 323.664276,428.749451 318.735382,429.010864 
	C317.777588,429.061676 316.143066,430.650970 316.111420,431.574799 
	C315.884216,438.213898 315.905853,444.866760 316.090240,451.508514 
	C316.115112,452.403198 317.491577,453.260345 318.242188,454.134888 
	C318.817810,453.130066 319.768616,452.168671 319.891113,451.111359 
	C320.147949,448.894012 319.969025,446.626221 319.969025,444.091553 
	C323.668213,444.091553 326.645660,444.199066 329.607025,444.028046 
	C330.533325,443.974579 331.416321,443.170166 332.319122,442.709473 
	C331.378937,442.102234 330.472198,441.044281 329.492310,440.971466 
	C326.426300,440.743744 323.332611,440.887787 319.492737,440.887787 
	C321.340210,437.548279 316.899536,432.642822 324.477997,432.412048 
M372.908600,445.604156 
	C372.479889,444.598450 372.202301,442.848633 371.594391,442.725159 
	C369.694702,442.339264 367.653229,442.417969 365.703400,442.639435 
	C365.021606,442.716888 364.446411,443.732574 363.822540,444.319824 
	C364.496704,444.888214 365.132050,445.879333 365.852295,445.945404 
	C367.970886,446.139740 370.123108,445.967041 372.908600,445.604156 
z"/>
<path fill="#000000" opacity="1.000000" stroke="none" 
	d="
M319.531342,0.999998 
	C319.204620,1.665530 318.485443,2.779714 317.602509,2.929605 
	C303.317902,5.354673 288.831268,6.872391 274.743805,10.125939 
	C219.076645,22.982450 169.353546,48.050163 126.059044,85.315552 
	C67.179092,135.996002 28.384258,199.194962 10.603394,274.908203 
	C6.971915,290.371490 5.406507,306.319000 2.843844,322.036011 
	C2.642130,323.273132 2.086665,324.452606 1.347805,325.329437 
	C1.000000,217.073502 1.000000,109.147003 1.000000,1.000000 
	C107.020790,1.000000 213.041733,1.000000 319.531342,0.999998 
z"/>
<path fill="#000000" opacity="1.000000" stroke="none" 
	d="
M0.999999,393.468658 
	C1.705279,393.847321 2.856872,394.604065 3.049988,395.555359 
	C6.969995,414.865509 9.630252,434.514404 14.844564,453.462006 
	C26.803623,496.918457 46.748955,536.668152 74.745728,572.102478 
	C84.590782,584.562988 94.900398,596.782837 106.086716,608.029602 
	C126.652573,628.706665 149.831528,646.183960 174.990738,661.051514 
	C198.631638,675.021851 223.408173,686.453674 249.747894,694.096985 
	C266.010254,698.816101 282.654297,702.264160 299.210907,705.900757 
	C305.062225,707.186035 311.167633,707.296875 317.143341,708.052307 
	C318.023804,708.163635 318.828094,708.877808 319.333801,709.656555 
	C213.073044,710.000000 107.146103,710.000000 1.000000,710.000000 
	C1.000000,604.645874 1.000000,499.291595 0.999999,393.468658 
z"/>
<path fill="#000000" opacity="1.000000" stroke="none" 
	d="
M393.468689,710.000000 
	C393.631073,709.335876 394.187805,708.192749 394.904694,708.081543 
	C402.124817,706.961060 409.445221,706.376099 416.594330,704.932129 
	C430.207733,702.182434 443.893799,699.562439 457.249725,695.818420 
	C480.948059,689.175354 503.743622,679.854675 525.136108,667.767273 
	C541.280029,658.645325 556.768005,648.216553 571.824036,637.365173 
	C582.382690,629.755127 591.884827,620.633484 601.571167,611.869019 
	C619.444641,595.696655 634.559509,577.166443 648.335388,557.394470 
	C669.755554,526.651001 685.869690,493.354706 696.549255,457.567688 
	C701.425720,441.226776 704.322144,424.287201 707.903076,407.573395 
	C708.721741,403.752136 708.581543,399.732758 709.047729,395.824249 
	C709.191284,394.620728 709.882812,393.482544 710.661743,392.657227 
	C711.000000,498.593842 711.000000,604.187683 711.000000,710.000000 
	C605.312561,710.000000 499.624939,710.000000 393.468689,710.000000 
z"/>
<path fill="#000000" opacity="1.000000" stroke="none" 
	d="
M711.000000,317.531342 
	C710.343140,317.548035 709.142700,317.134308 709.107849,316.638580 
	C707.804443,298.108673 703.956787,280.024200 698.891907,262.244385 
	C695.068298,248.821655 691.163513,235.272812 685.563538,222.541687 
	C677.919678,205.164261 669.462402,188.018509 659.803894,171.690308 
	C650.866333,156.581161 640.042236,142.567566 629.720276,128.309402 
	C626.361206,123.669350 622.117615,119.626144 618.016785,115.574966 
	C607.156433,104.846230 596.849121,93.401596 585.028931,83.840103 
	C570.466614,72.060471 555.195312,60.892601 539.123840,51.317711 
	C522.975464,41.696991 505.872955,33.355679 488.439880,26.304768 
	C471.386383,19.407373 453.532349,14.318691 435.750366,9.458076 
	C425.319885,6.606972 414.339752,5.777074 403.615845,3.984248 
	C399.507294,3.297376 395.423767,2.460889 391.664429,1.346288 
	C498.260162,1.000000 604.520325,1.000000 711.000000,1.000000 
	C711.000000,106.354126 711.000000,211.708405 711.000000,317.531342 
z"/>
<path fill="#9C8E76" opacity="1.000000" stroke="none" 
	d="
M265.839600,449.009369 
	C266.439636,457.352844 268.285645,465.844879 267.312988,474.000793 
	C266.187805,483.435669 262.797791,492.642181 259.933960,501.804962 
	C258.951782,504.947479 259.645447,506.439331 262.287231,507.759857 
	C273.675507,513.452393 285.548035,512.836060 296.570068,508.048523 
	C311.937225,501.373657 326.620483,493.129761 341.627686,485.619751 
	C372.855042,469.992676 405.133972,463.220184 439.463776,474.222351 
	C441.194061,474.776886 442.817047,475.660461 444.505554,476.352814 
	C445.982422,476.958344 447.481323,477.510193 448.434875,477.878754 
	C449.457062,469.716614 450.430756,461.941742 451.938843,453.895782 
	C453.683685,453.820435 454.894165,454.016144 456.104614,454.211884 
	C456.301575,453.826080 456.498505,453.440277 456.695465,453.054504 
	C455.067749,450.746429 453.440063,448.438385 452.581329,447.220703 
	C454.319702,443.225433 455.677795,440.104218 457.035858,436.982971 
	C457.946259,436.319153 458.810883,435.577393 459.777618,435.009552 
	C461.272583,434.131439 462.837311,433.372223 464.372437,432.562561 
	C464.843719,434.373779 465.819946,436.222626 465.688263,437.988861 
	C465.343109,442.618988 464.010468,447.208893 463.972778,451.822205 
	C463.857635,465.912598 462.423615,480.294800 464.696503,494.035156 
	C468.657745,517.982361 449.863251,531.798157 431.476959,531.721802 
	C422.536469,531.684753 413.488098,529.046448 404.711334,526.738586 
	C397.016663,524.715332 389.623932,521.533997 382.123352,518.794312 
	C381.128815,518.431091 380.284760,517.655945 379.489410,515.931641 
	C380.929688,515.791748 382.421478,515.336243 383.802155,515.561584 
	C395.608276,517.488037 407.381561,519.616150 419.190399,521.524841 
	C427.783600,522.913696 436.226044,522.142822 443.877472,517.790833 
	C449.147491,514.793457 452.852692,510.154846 452.986420,503.773224 
	C453.123444,497.235565 448.630707,493.429810 443.451508,490.865143 
	C433.820374,486.095947 423.522858,483.484283 412.735199,483.003082 
	C386.995361,481.854858 363.632507,489.719147 341.145538,501.416229 
	C327.896759,508.307953 314.641449,515.417358 300.757904,520.801392 
	C282.561768,527.857788 265.738281,524.114685 251.762970,510.059937 
	C250.557083,508.847168 249.684113,506.098572 250.191162,504.573700 
	C255.251831,489.354889 259.451599,474.016113 259.319122,457.787842 
	C259.307343,456.347137 260.019684,454.900543 261.065033,453.326416 
	C267.191589,455.809723 264.029877,449.972260 265.839600,449.009369 
z"/>
<path fill="#9C8D75" opacity="1.000000" stroke="none" 
	d="
M538.775757,335.280090 
	C540.481750,329.803894 543.108948,324.429810 543.729004,318.833282 
	C546.018311,298.171356 541.189514,279.030121 528.497681,262.472168 
	C513.165466,242.469681 492.696686,231.325897 467.460052,228.868057 
	C444.358246,226.618164 423.823181,233.398392 404.081360,245.936600 
	C402.623688,246.990494 401.812347,247.875076 401.000977,248.759644 
	C396.554779,252.723251 392.108612,256.686859 387.064026,260.766602 
	C385.929718,260.151825 385.393768,259.420929 384.857819,258.690002 
	C385.187134,257.974762 385.516479,257.259552 386.293518,256.210083 
	C387.820251,254.229904 388.899231,252.583984 389.978241,250.938065 
	C398.964478,238.679428 410.934204,230.199478 424.741150,224.370193 
	C444.847260,215.881439 465.791504,214.077774 486.850433,219.588425 
	C523.460693,229.168533 546.940979,252.373550 556.111877,289.358002 
	C560.571106,307.341095 558.536194,324.983887 552.067017,342.193329 
	C551.441833,343.856445 550.288940,345.321198 548.703491,346.866516 
	C544.942444,342.996704 541.859131,339.138397 538.775757,335.280090 
z"/>
<path fill="#9B8D75" opacity="1.000000" stroke="none" 
	d="
M347.220093,377.733429 
	C334.577972,390.245819 320.099976,400.170807 304.089722,407.807770 
	C283.459534,417.648499 261.719727,422.983673 238.822708,424.160767 
	C221.586700,425.046906 204.972565,423.012817 189.304428,415.745758 
	C183.828659,413.206024 179.021866,409.223969 174.077881,405.339447 
	C176.169830,401.266663 181.321030,399.510895 179.986618,394.226746 
	C190.964615,403.470825 203.676147,409.079956 217.797211,410.897491 
	C244.180023,414.293243 269.935608,411.108398 294.783325,401.637848 
	C304.154114,398.066193 313.186829,393.607666 323.221710,389.179199 
	C320.261444,387.933655 318.696136,387.275024 317.561646,386.372040 
	C319.895142,386.127686 321.797821,386.127686 324.168457,386.127686 
	C324.168457,368.003571 324.168457,350.472229 324.168457,332.940918 
	C324.703278,334.667206 325.686005,336.389343 325.702057,338.120483 
	C325.831268,352.054077 325.778442,365.989349 325.781158,379.924133 
	C325.781494,381.678406 325.781158,383.432709 325.781158,386.587738 
	C332.660400,382.236908 338.433716,378.585541 344.867737,375.047302 
	C346.092346,376.018127 346.656219,376.875763 347.220093,377.733429 
z"/>
<path fill="#9F9078" opacity="1.000000" stroke="none" 
	d="
M224.769989,225.954483 
	C232.845139,219.177124 240.297104,211.414001 249.127518,205.831284 
	C266.548798,194.817352 286.132080,189.979477 306.719971,191.221176 
	C338.170776,193.118042 364.561554,205.201691 383.145905,231.695892 
	C383.908813,232.783508 384.585266,233.933884 385.259399,235.080063 
	C385.413391,235.341904 385.390503,235.707794 385.754669,237.686234 
	C383.049500,235.586884 381.111450,234.371323 379.520569,232.803467 
	C363.968323,217.476471 345.740265,206.905060 324.139679,203.234314 
	C299.869385,199.109879 276.661987,202.696411 255.897949,216.525223 
	C247.943741,221.822693 241.034790,228.689651 233.299988,234.665405 
	C231.968643,232.991211 230.986847,231.493027 229.838287,229.704315 
	C228.037659,228.260696 226.403824,227.107590 224.769989,225.954483 
z"/>
<path fill="#988B76" opacity="1.000000" stroke="none" 
	d="
M209.818604,329.012665 
	C210.200882,329.965881 210.583160,330.919128 210.569275,332.282471 
	C207.734299,332.793213 205.295486,332.893860 202.856674,332.994537 
	C193.882660,330.670868 186.581604,335.018188 178.731201,338.577454 
	C178.290039,336.480957 178.290039,334.741180 178.290039,332.886688 
	C175.151840,332.886688 172.772507,332.886688 169.948059,332.886688 
	C169.948059,339.525421 169.948059,345.767792 169.584290,352.069519 
	C168.142563,356.436676 166.158966,360.763733 166.250214,365.046600 
	C166.335556,369.051788 168.621338,373.010132 170.040100,377.441284 
	C169.781967,384.480621 170.722061,391.349304 166.003616,396.992004 
	C162.544083,391.949219 158.092972,387.316742 155.805618,381.788910 
	C148.056519,363.061768 152.814163,343.063110 167.429504,329.311157 
	C177.895126,319.463776 193.258575,318.074280 204.790100,326.427246 
	C206.743698,327.594055 208.281143,328.303345 209.818604,329.012665 
z"/>
<path fill="#141310" opacity="1.000000" stroke="none" 
	d="
M447.891174,356.000000 
	C447.890198,365.319794 447.775848,374.141815 447.949829,382.958160 
	C448.011658,386.091400 446.855591,387.026459 443.880554,386.926788 
	C441.108643,386.833923 439.600677,386.239990 439.690552,382.971344 
	C439.895111,375.531189 439.755066,368.081604 439.755066,360.357361 
	C431.386444,360.357361 423.637024,360.357361 415.115936,360.357361 
	C415.115936,368.108154 414.994934,375.694550 415.175598,383.273743 
	C415.247589,386.294464 413.886292,387.031250 411.288849,386.929901 
	C409.038483,386.842072 406.970032,386.962677 406.986969,383.641327 
	C407.072479,366.865906 407.026276,350.089813 407.026276,332.942505 
	C409.847107,332.942505 412.236115,332.942505 415.117676,332.942505 
	C415.117676,340.713806 415.117676,348.315552 415.117676,356.674744 
	C422.846191,356.674744 430.116333,356.809418 437.367035,356.495117 
	C438.221466,356.458069 439.604553,353.980011 439.657501,352.592133 
	C439.903107,346.152496 439.766144,339.698273 439.766144,332.897400 
	C442.652802,332.897400 445.040833,332.897400 447.891479,332.897400 
	C447.891479,340.602905 447.891479,348.051483 447.891174,356.000000 
z"/>
<path fill="#13120F" opacity="1.000000" stroke="none" 
	d="
M274.724060,366.170349 
	C272.443329,362.292572 269.959564,359.646790 264.917084,361.787384 
	C264.917084,369.797516 264.917084,377.911377 264.917084,386.428833 
	C262.103607,386.428833 259.711365,386.428833 256.977539,386.428833 
	C256.977539,368.646362 256.977539,350.899536 256.977539,333.179596 
	C264.820648,333.179596 272.682617,332.378448 280.309082,333.376709 
	C290.485535,334.708771 295.009491,341.713409 292.486450,350.045074 
	C291.094482,354.641693 287.477325,356.883392 283.426605,358.630646 
	C281.945099,359.269684 280.357819,359.663452 278.004944,360.436462 
	C285.203308,369.230072 291.987213,377.517365 298.812592,385.855316 
	C292.785400,389.091766 290.397278,388.593597 286.964996,383.676636 
	C282.962311,377.942566 278.945770,372.218109 274.724060,366.170349 
M272.170837,358.242828 
	C273.151672,358.072052 274.137695,357.926453 275.112549,357.726440 
	C282.173279,356.277710 285.361694,351.779907 284.227936,344.885529 
	C283.231079,338.823578 278.034058,335.083069 271.514923,335.844940 
	C269.404083,336.091644 267.324493,336.605225 265.148132,337.012146 
	C265.148132,344.167084 265.148132,351.064819 265.148132,358.356567 
	C267.373596,358.356567 269.313538,358.356567 272.170837,358.242828 
z"/>
<path fill="#161510" opacity="1.000000" stroke="none" 
	d="
M538.523560,335.035339 
	C541.859131,339.138397 544.942444,342.996704 548.339417,346.937866 
	C554.439575,354.809357 560.226135,362.597992 566.012634,370.386658 
	C566.410706,370.254395 566.808716,370.122162 567.206787,369.989899 
	C567.349182,368.625122 567.609314,367.260864 567.615234,365.895477 
	C567.657898,356.089111 567.569214,346.281097 567.746399,336.477631 
	C567.771667,335.079590 569.005676,333.703369 569.680237,332.317047 
	C570.132935,332.548035 570.585571,332.779022 571.038208,333.010010 
	C571.038208,351.136993 571.038208,369.263947 571.038208,387.390900 
	C570.711853,387.533112 570.385437,387.675293 570.059082,387.817505 
	C562.218140,378.013245 554.377258,368.208954 546.203247,357.857941 
	C542.184265,352.867798 538.498474,348.424377 534.325989,343.394287 
	C534.325989,353.383118 534.325989,362.271881 534.325989,371.160645 
	C534.217285,375.118591 534.259888,379.089447 533.923035,383.027893 
	C533.793640,384.540253 532.798950,385.978607 532.198486,387.450684 
	C531.621887,387.270630 531.045288,387.090576 530.468689,386.910522 
	C530.265137,383.730591 530.061584,380.550690 529.666748,376.797913 
	C529.033325,372.509064 528.591187,368.793060 528.550049,365.011841 
	C529.221008,362.603973 529.491028,360.261261 529.761047,357.918579 
	C529.761047,349.698883 529.761047,341.479156 529.761047,331.501953 
	C533.344299,332.886627 535.807800,333.838593 538.523560,335.035339 
z"/>
<path fill="#191815" opacity="1.000000" stroke="none" 
	d="
M134.501984,359.147339 
	C128.763733,359.822296 123.176132,360.114319 117.129745,360.430298 
	C117.129745,367.934235 117.129745,375.440277 117.129745,383.518768 
	C125.162918,382.828308 133.042496,382.151062 141.186737,381.451080 
	C142.110367,384.843567 141.994949,387.018524 137.652603,386.951752 
	C129.333176,386.823853 121.006119,387.060242 112.692543,386.806793 
	C111.260674,386.763153 108.669548,385.062653 108.655357,384.097473 
	C108.406479,367.161896 108.475456,350.221649 108.475456,332.891296 
	C119.490196,332.891296 130.060333,332.891296 140.957214,332.891296 
	C140.957214,334.336182 140.957214,335.886719 140.957214,338.049652 
	C136.926010,337.456451 133.222443,336.908997 129.518005,336.367523 
	C127.877403,336.127716 126.235977,335.708344 124.593285,335.700165 
	C117.564232,335.665161 116.690834,336.575470 116.692078,343.495422 
	C116.692825,347.626892 116.692215,351.758331 116.692215,356.708740 
	C121.561310,356.708740 125.984367,356.541626 130.381943,356.803101 
	C131.839233,356.889740 133.230942,358.079163 134.501984,359.147339 
z"/>
<path fill="#9C8E76" opacity="1.000000" stroke="none" 
	d="
M505.003113,394.704529 
	C492.925568,402.323944 479.457092,405.994263 465.519318,407.702911 
	C450.392670,409.557343 435.305389,408.922119 420.658081,404.023193 
	C419.190002,403.532166 417.796783,402.817383 416.368805,402.206482 
	C416.424042,401.729187 416.479248,401.251862 416.534454,400.774567 
	C418.503357,400.604004 420.511169,400.093903 422.435181,400.314606 
	C445.594025,402.971130 467.872559,399.988983 489.045197,390.004944 
	C493.510986,387.899078 497.764771,385.343628 502.747101,383.163208 
	C504.253632,384.634857 505.129272,385.938629 506.020813,387.580322 
	C505.692200,390.180328 505.347656,392.442444 505.003113,394.704529 
z"/>
<path fill="#171512" opacity="1.000000" stroke="none" 
	d="
M61.316387,371.584137 
	C60.514942,373.502380 59.713501,375.420593 58.418949,377.767090 
	C57.710522,378.976074 57.495201,379.756805 57.279892,380.537506 
	C56.776699,381.912781 56.273499,383.288086 55.164734,384.855164 
	C54.040012,385.031097 53.520851,385.015198 53.001694,384.999329 
	C52.602642,384.347107 52.203590,383.694885 51.840614,382.445526 
	C51.469769,381.206055 51.062840,380.563751 50.655914,379.921417 
	C45.199936,368.232208 39.743961,356.542999 34.287983,344.853790 
	C33.899494,344.887543 33.511002,344.921295 33.122513,344.955048 
	C32.990425,346.460663 32.807240,347.963776 32.734394,349.472260 
	C32.187984,360.787048 31.717627,372.106110 31.048151,383.413483 
	C30.981024,384.547241 29.747553,385.611969 29.055374,386.708740 
	C28.423946,385.760925 27.201614,384.782654 27.248665,383.869812 
	C28.121910,366.927887 29.146399,349.993774 30.133034,333.160645 
	C35.458843,331.414886 38.529739,332.775299 40.648487,338.112671 
	C44.386402,347.528961 48.922695,356.628326 53.121250,366.519989 
	C53.536549,367.811829 53.955353,368.444061 54.374161,369.076263 
	C54.854019,369.899902 55.333874,370.723541 55.919102,372.197083 
	C56.958786,371.784485 57.893097,370.721954 58.827400,369.659393 
	C59.616447,367.658722 60.405499,365.658081 61.685432,363.231598 
	C62.389660,362.084290 62.603001,361.362762 62.816338,360.641266 
	C62.816341,360.641266 62.783600,360.288666 63.161934,359.980042 
	C64.333588,358.446686 65.126907,357.221954 66.215546,356.012970 
	C66.707802,356.037933 66.904739,356.047211 67.068329,356.421082 
	C67.064911,357.271759 67.094826,357.757812 67.124748,358.243835 
	C67.124748,358.243835 67.129257,358.657501 66.717751,359.022766 
	C65.973785,360.451324 65.641319,361.514618 65.308868,362.577942 
	C64.500328,364.492523 63.691784,366.407074 62.397964,368.759827 
	C61.713917,369.993378 61.515152,370.788757 61.316387,371.584137 
z"/>
<path fill="#1B1915" opacity="1.000000" stroke="none" 
	d="
M347.516937,377.889038 
	C346.656219,376.875763 346.092346,376.018127 345.224731,375.081085 
	C342.466705,367.460754 341.161804,359.852692 343.474274,352.006317 
	C347.192383,339.390442 361.233887,330.281067 375.398682,331.547272 
	C379.486328,331.912659 383.517059,332.914429 387.958679,333.691772 
	C387.610535,335.901886 387.364166,337.465881 387.031036,339.580627 
	C375.109100,334.503113 363.623779,331.654724 355.083984,344.673309 
	C349.360443,353.398682 349.998749,369.025757 356.207245,376.735168 
	C363.229340,385.454834 373.514343,386.973022 389.665131,382.319153 
	C388.565613,383.540527 387.660614,385.529968 386.336731,385.865173 
	C372.296295,389.420441 358.954041,388.998657 347.516937,377.889038 
z"/>
<path fill="#171512" opacity="1.000000" stroke="none" 
	d="
M202.775787,333.457520 
	C205.295486,332.893860 207.734299,332.793213 210.616165,332.587280 
	C219.008331,332.481964 226.957443,332.481964 235.328781,332.481964 
	C235.004318,334.671265 234.795502,336.080261 234.513229,337.984863 
	C230.510025,337.376099 226.797684,336.805939 223.083282,336.249542 
	C221.605103,336.028107 220.122040,335.660034 218.641708,335.662598 
	C211.593369,335.674774 210.733841,336.577393 210.750885,343.576477 
	C210.782700,356.644806 210.783157,356.611938 224.132019,356.803497 
	C225.768036,356.826965 227.395752,357.429291 229.027328,357.763367 
	C228.954437,358.536865 228.881561,359.310394 228.808685,360.083893 
	C224.476349,360.083893 220.129929,360.299866 215.815887,360.018982 
	C212.023590,359.772034 210.398743,360.760284 210.658463,364.941559 
	C211.026932,370.873749 210.751968,376.845886 210.751968,383.524780 
	C219.296249,382.808289 227.311691,382.136139 235.441940,381.454346 
	C236.366226,385.237976 235.238800,386.872620 231.654816,386.855347 
	C223.493439,386.815979 215.328140,386.737152 207.171585,386.949402 
	C203.699524,387.039764 202.570755,385.913361 202.607147,382.391968 
	C202.774124,366.236267 202.689301,350.077911 202.775787,333.457520 
z"/>
<path fill="#171512" opacity="1.000000" stroke="none" 
	d="
M506.004883,387.242432 
	C505.129272,385.938629 504.253632,384.634857 503.092224,383.137329 
	C501.841766,380.205109 501.125305,377.337799 499.801514,374.785553 
	C499.193146,373.612610 497.421600,372.389893 496.129578,372.335876 
	C489.992004,372.079132 483.827148,372.020538 477.697449,372.356171 
	C476.210541,372.437622 474.313751,373.983734 473.493530,375.378571 
	C471.912476,378.067383 471.201050,381.263062 469.655334,383.978973 
	C468.881561,385.338562 467.065186,386.104828 465.720306,387.139435 
	C465.207458,386.664307 464.694580,386.189178 464.181732,385.714050 
	C468.349915,377.014709 472.518066,368.315369 477.297516,359.340759 
	C478.448181,359.081390 478.987518,359.097351 479.478271,359.512634 
	C478.456848,362.618774 477.484039,365.325623 476.328033,368.542236 
	C483.583527,368.542236 490.088745,368.542236 497.404053,368.542236 
	C493.939636,360.060333 490.657654,352.025116 487.115906,343.353882 
	C485.859283,344.975830 485.362854,345.616577 484.562103,345.316406 
	C484.071014,343.743256 483.884186,343.110992 483.697388,342.478729 
	C485.232635,338.741760 486.767853,335.004822 488.303101,331.267853 
	C488.769073,331.282776 489.235046,331.297668 489.701019,331.312592 
	C496.247528,346.092926 502.794037,360.873291 509.531189,376.289978 
	C510.682281,378.680328 511.642731,380.434326 512.621216,382.510071 
	C513.038147,384.033966 513.436951,385.236115 513.413208,386.549683 
	C510.662079,386.854858 508.333466,387.048645 506.004883,387.242432 
z"/>
<path fill="#0F0D09" opacity="1.000000" stroke="none" 
	d="
M169.948059,352.010132 
	C169.948059,345.767792 169.948059,339.525421 169.948059,332.886688 
	C172.772507,332.886688 175.151840,332.886688 178.290039,332.886688 
	C178.290039,334.741180 178.290039,336.480957 178.404663,338.641327 
	C178.434845,350.328430 178.466080,361.597504 178.221191,372.860565 
	C178.081329,379.292480 177.491516,385.714600 176.803528,392.678833 
	C174.164856,396.179718 171.826981,399.142883 169.489105,402.106079 
	C163.678635,405.267639 157.692490,406.262665 151.029144,403.629211 
	C151.306824,401.949707 151.565399,400.385773 151.797958,398.979218 
	C156.645462,397.406982 161.954651,405.616058 165.971924,397.364075 
	C170.722061,391.349304 169.781967,384.480621 170.090759,376.974792 
	C170.009338,368.040771 169.978699,360.025452 169.948059,352.010132 
z"/>
<path fill="#13120F" opacity="1.000000" stroke="none" 
	d="
M692.294922,380.077911 
	C692.629578,380.613770 692.964172,381.149597 693.262329,382.369934 
	C693.179382,388.503632 688.765320,384.734985 686.786255,386.105560 
	C686.448059,385.752625 686.109924,385.399689 685.819458,384.475647 
	C685.443848,383.244843 685.020508,382.585175 684.597107,381.925537 
	C684.013000,380.648529 683.428955,379.371490 682.858215,377.340393 
	C682.445923,372.030212 679.836182,370.661133 675.479248,370.927887 
	C670.407471,371.238403 665.298218,370.890350 660.214172,371.074890 
	C658.773071,371.127258 657.363159,372.041290 655.938904,372.560120 
	C655.275208,374.137512 654.611511,375.714905 653.458557,377.735931 
	C652.374023,379.908966 651.778687,381.638397 651.183411,383.367828 
	C651.134399,383.738373 651.085327,384.108917 650.568848,384.767822 
	C649.001343,384.929932 647.901123,384.803680 646.800964,384.677399 
	C646.869141,384.297394 646.937256,383.917419 647.487793,383.178589 
	C648.578369,381.076416 649.186523,379.333099 649.794556,377.589783 
	C649.867065,377.222778 649.939575,376.855804 650.509888,376.140991 
	C651.194885,374.964172 651.381958,374.135223 651.569092,373.306213 
	C652.352234,371.418976 653.135437,369.531738 654.427734,367.225861 
	C655.151917,365.985077 655.366943,365.162964 655.581970,364.340820 
	C656.255859,362.740204 656.929810,361.139557 658.301758,359.283447 
	C659.666138,359.128143 660.332336,359.228363 660.941040,359.722351 
	C659.875793,362.823517 658.868103,365.530914 657.780701,368.452454 
	C665.015747,368.452454 671.546692,368.452454 678.761475,368.452454 
	C675.342102,359.860931 672.177307,351.909302 668.966797,343.756165 
	C668.591125,343.581787 668.261169,343.608917 667.801758,343.977722 
	C665.793762,348.549408 663.915344,352.779449 661.706482,356.957733 
	C661.180542,355.471680 660.985046,354.037384 660.789551,352.603058 
	C662.586975,348.313385 664.384399,344.023712 666.671021,339.284882 
	C667.367859,338.088287 667.575562,337.340881 667.783203,336.593475 
	C668.465332,334.855591 669.147400,333.117676 669.829468,331.379791 
	C670.302002,331.355865 670.774475,331.331940 671.246948,331.308014 
	C677.866333,346.517639 684.485657,361.727234 691.094604,377.592407 
	C691.487793,378.857941 691.891357,379.467926 692.294922,380.077911 
z"/>
<path fill="#0F0F0C" opacity="1.000000" stroke="none" 
	d="
M67.101669,356.056458 
	C66.904739,356.047211 66.707802,356.037933 66.241486,355.622070 
	C65.919090,354.698242 65.866074,354.181030 65.813065,353.663818 
	C66.187904,352.652130 66.562744,351.640411 67.424187,350.234924 
	C68.530487,348.090515 69.150192,346.339874 69.769882,344.589264 
	C70.168648,343.600647 70.567421,342.612061 71.374344,341.300537 
	C71.941788,340.339264 72.101074,339.700867 72.260361,339.062500 
	C72.800240,337.590057 73.340103,336.117645 74.323563,334.300110 
	C75.190857,333.581390 75.614563,333.207764 76.038269,332.834167 
	C77.754845,332.766815 79.471428,332.699463 81.744720,332.974426 
	C82.599937,333.529907 82.898422,333.743042 83.196899,333.956207 
	C83.357368,336.805542 83.517838,339.654846 83.430618,343.392639 
	C83.617134,348.215088 84.051346,352.149139 84.485558,356.083160 
	C84.642509,359.101196 84.799461,362.119202 84.689880,365.876831 
	C84.695503,368.777283 84.967659,370.938110 85.239807,373.098969 
	C85.390404,373.853394 85.541000,374.607819 85.424904,376.029907 
	C85.421837,378.461273 85.685471,380.224945 85.949104,381.988617 
	C86.014542,383.413513 86.079979,384.838409 86.158371,386.545288 
	C83.397331,386.545288 81.025719,386.545288 78.060417,386.545288 
	C77.890022,383.436249 77.724594,380.417847 77.752579,376.499817 
	C77.611351,372.062469 77.276711,368.524719 76.942070,364.986938 
	C76.754616,361.145721 76.567169,357.304535 76.624802,352.564819 
	C76.891426,348.896454 77.118248,346.108276 76.872810,343.362274 
	C76.656860,340.946136 76.204933,340.926575 73.923195,342.800140 
	C73.907013,342.998718 73.890823,343.197327 73.419342,343.770813 
	C72.345451,345.830383 71.726868,347.515045 71.108276,349.199707 
	C70.714684,350.246613 70.321091,351.293488 69.465790,352.716858 
	C68.369949,354.081055 67.735809,355.068756 67.101669,356.056458 
z"/>
<path fill="#0F0F0C" opacity="1.000000" stroke="none" 
	d="
M595.012207,333.031250 
	C597.409363,332.890778 599.806519,332.750275 602.729248,332.578949 
	C602.729248,340.902374 602.729248,348.516937 602.488464,356.760803 
	C602.179138,357.899048 602.110535,358.407990 602.032104,359.220886 
	C602.202698,360.291077 602.383118,361.057281 602.563477,361.823517 
	C602.577881,369.682465 602.592285,377.541412 601.886963,385.665039 
	C599.065247,385.994812 596.963440,386.059937 594.861572,386.125061 
	C594.861572,386.125031 594.990845,386.008545 594.989319,385.598206 
	C594.995972,367.802338 595.004089,350.416779 595.012207,333.031250 
z"/>
<path fill="#0B0A09" opacity="1.000000" stroke="none" 
	d="
M323.716461,332.807068 
	C324.168457,350.472229 324.168457,368.003571 324.168457,386.127686 
	C321.797821,386.127686 319.895142,386.127686 317.555481,386.016815 
	C317.118500,368.357483 317.118500,350.808990 317.118500,332.673218 
	C319.413757,332.673218 321.339111,332.673218 323.716461,332.807068 
z"/>
<path fill="#2D2C24" opacity="1.000000" stroke="none" 
	d="
M390.646454,454.302185 
	C378.447937,454.212494 380.573608,455.682251 380.348969,444.683685 
	C380.244690,439.579224 380.331116,434.470856 380.331116,428.912262 
	C384.793762,428.912262 388.597839,428.726898 392.377625,428.950684 
	C400.343414,429.422394 402.764221,434.012177 399.685944,439.405029 
	C400.570587,443.682159 402.281708,446.960022 401.568481,449.577179 
	C400.206512,454.574829 395.176483,453.932251 390.646454,454.302185 
M393.896881,443.119415 
	C390.956451,443.119415 388.016022,443.119415 384.777832,443.119415 
	C384.777832,445.861969 384.777832,448.230957 384.777832,450.912201 
	C387.951843,450.912201 390.808289,451.263000 393.517273,450.782471 
	C395.178680,450.487762 396.614197,448.919556 398.151154,447.923248 
	C397.014435,446.387817 395.877747,444.852386 393.896881,443.119415 
M393.665466,432.455322 
	C390.757904,432.323242 387.850311,432.191193 384.749329,432.050354 
	C384.749329,434.991699 384.749329,437.216125 384.749329,439.750977 
	C387.732086,439.750977 390.410034,440.055084 392.966248,439.628906 
	C394.345398,439.399017 396.395294,438.048370 396.553192,436.970490 
	C396.740601,435.691498 395.218536,434.162018 393.665466,432.455322 
z"/>
<path fill="#161510" opacity="1.000000" stroke="none" 
	d="
M602.939331,361.849640 
	C602.383118,361.057281 602.202698,360.291077 602.300659,359.213196 
	C603.097229,358.495453 603.615540,358.089355 604.133911,357.683228 
	C604.809692,356.824127 605.485474,355.965027 606.734131,355.181885 
	C607.587646,355.600006 607.868286,355.942139 608.148926,356.284241 
	C608.819031,357.605682 609.211975,359.200073 610.202637,360.205750 
	C618.665161,368.796906 627.236023,377.281281 635.880676,385.903473 
	C629.573547,388.940521 626.619873,388.376770 622.653992,383.837830 
	C616.236023,376.492432 609.764282,369.194031 602.939331,361.849640 
z"/>
<path fill="#28251E" opacity="1.000000" stroke="none" 
	d="
M352.566833,450.803955 
	C354.656860,450.798767 356.297516,450.798767 357.957825,450.798767 
	C357.711334,454.707550 353.166809,455.430573 340.618591,453.758575 
	C340.618591,445.661957 340.618591,437.504639 340.618591,428.882843 
	C345.859650,428.882843 350.811829,428.821960 355.759308,428.946777 
	C356.523956,428.966064 357.267090,429.837128 358.020172,430.314270 
	C357.284027,431.014954 356.600311,432.240326 355.802124,432.320099 
	C353.170044,432.583160 350.492432,432.527771 347.840118,432.413208 
	C345.044342,432.292480 344.078979,433.510559 344.047760,436.257690 
	C344.013489,439.273438 345.477081,439.906586 348.066559,439.785095 
	C350.908783,439.651764 353.762085,439.754700 356.610565,439.754700 
	C356.666595,440.580750 356.722626,441.406830 356.778687,442.232880 
	C354.625916,442.514832 352.476990,442.831635 350.319397,443.069916 
	C347.645905,443.365112 344.131104,441.677704 344.032776,446.863037 
	C343.934326,452.055450 347.406616,450.585388 350.124695,450.778931 
	C350.786285,450.826080 351.453094,450.801025 352.566833,450.803955 
z"/>
<path fill="#28251E" opacity="1.000000" stroke="none" 
	d="
M456.901184,436.656250 
	C455.677795,440.104218 454.319702,443.225433 452.581329,447.220703 
	C453.440063,448.438385 455.067749,450.746429 456.695465,453.054504 
	C456.498505,453.440277 456.301575,453.826080 456.104614,454.211884 
	C454.894165,454.016144 453.683685,453.820435 452.199554,453.520691 
	C448.512512,446.264832 448.420807,446.212433 441.105103,447.233185 
	C440.932892,447.503662 440.727112,447.761108 440.604858,448.053467 
	C439.757172,450.080597 438.926849,452.114990 438.090942,454.147034 
	C437.567230,452.080902 436.660614,450.027374 436.591949,447.946228 
	C436.389832,441.816010 436.519806,435.674866 436.519806,429.649841 
	C447.552490,427.180115 454.020844,429.399323 456.901184,436.656250 
M453.032196,437.527252 
	C452.172791,431.861450 447.588867,432.516479 443.766724,432.383118 
	C442.650238,432.344147 440.516541,433.952637 440.505280,434.827332 
	C440.469452,437.613953 440.239990,441.459320 441.870300,442.972076 
	C444.736481,445.631683 451.250671,442.473297 453.032196,437.527252 
z"/>
<path fill="#9B8D75" opacity="1.000000" stroke="none" 
	d="
M230.005066,229.994843 
	C230.986847,231.493027 231.968643,232.991211 233.012833,234.843658 
	C231.527649,237.330933 229.980057,239.463959 227.854141,241.878845 
	C226.887131,242.870010 226.498428,243.579300 226.109726,244.288589 
	C225.909363,244.765503 225.708984,245.242416 224.945007,245.943436 
	C223.639130,247.584961 222.896866,249.002365 222.154602,250.419769 
	C219.466141,256.705963 216.777710,262.992188 213.717865,269.693115 
	C213.211960,270.729309 213.077423,271.350708 212.942902,271.972137 
	C212.846054,272.534698 212.749191,273.097290 212.103973,273.775513 
	C211.717377,269.180298 211.879135,264.469391 212.057312,259.280304 
	C210.266373,259.651398 207.385757,260.248260 204.505127,260.845154 
	C204.653687,260.128113 204.802246,259.411102 205.391357,258.282532 
	C209.552628,253.914505 213.273331,249.958038 216.996979,246.000519 
	C216.999939,245.999481 217.001709,245.994034 217.365631,245.983032 
	C219.152023,244.311295 220.574493,242.650543 222.134705,240.736816 
	C222.844482,239.988220 223.416489,239.492584 224.353439,238.985428 
	C226.525131,237.598251 228.331879,236.222595 230.138626,234.846924 
	C229.826508,234.481476 229.514404,234.116028 229.202286,233.750595 
	C227.468399,234.501465 225.734512,235.252350 223.771942,235.754852 
	C223.028656,234.004227 222.514023,232.501968 222.252136,230.881622 
	C223.000229,230.507645 223.495621,230.251740 224.093018,230.331421 
	C226.418823,232.924744 228.307709,232.287598 230.005066,229.994843 
z"/>
<path fill="#28251E" opacity="1.000000" stroke="none" 
	d="
M412.655701,437.497009 
	C414.667633,434.402679 416.496277,431.646271 418.324951,428.889893 
	C420.198425,431.591858 422.402710,434.126373 423.873322,437.032227 
	C426.554138,442.329407 428.799957,447.846771 431.227264,453.272278 
	C430.935455,453.671417 430.643616,454.070526 430.351776,454.469666 
	C429.175690,453.704224 427.592804,453.204285 426.891205,452.129211 
	C423.083374,446.294434 412.928864,446.217102 409.296967,452.186371 
	C408.717133,453.139374 408.639648,454.398041 408.329956,455.515442 
	C407.612793,454.910400 406.895630,454.305389 406.178467,453.700348 
	C408.276459,448.411865 410.374420,443.123383 412.655701,437.497009 
M421.779755,444.856262 
	C421.009705,441.320465 420.239655,437.784637 419.469604,434.248840 
	C418.882355,434.314331 418.295074,434.379852 417.707794,434.445343 
	C416.313812,437.699371 414.919861,440.953369 413.194916,444.979950 
	C416.409698,444.979950 418.680573,444.979950 421.779755,444.856262 
z"/>
<path fill="#2A2921" opacity="1.000000" stroke="none" 
	d="
M295.196136,431.017059 
	C296.930298,428.381317 299.126404,427.808411 300.411774,430.425720 
	C303.993347,437.718964 307.148132,445.222382 310.416687,452.666809 
	C310.562164,452.998108 310.168762,453.566040 309.660339,455.200409 
	C308.148438,453.610596 306.673309,452.677826 306.134766,451.361755 
	C305.081696,448.788483 303.536102,447.754700 300.794220,448.098114 
	C299.154938,448.303436 297.447906,448.302490 295.808228,448.098083 
	C292.776215,447.720184 290.819244,448.563385 289.745178,451.700012 
	C289.339539,452.884460 287.645905,453.627869 286.539429,454.572327 
	C286.060883,454.168304 285.582336,453.764282 285.103790,453.360229 
	C288.426086,446.030914 291.748383,438.701599 295.196136,431.017059 
M298.428741,434.598541 
	C296.620972,437.648193 294.813171,440.697845 292.492554,444.612610 
	C296.773926,444.612610 299.548370,444.612610 302.980713,444.612610 
	C301.456696,441.066071 300.173859,438.080688 298.428741,434.598541 
z"/>
<path fill="#9C8E76" opacity="1.000000" stroke="none" 
	d="
M513.835815,386.438293 
	C513.436951,385.236115 513.038147,384.033966 512.966064,382.313721 
	C514.174072,378.834381 515.055176,375.873108 515.936340,372.911865 
	C515.936340,372.911865 515.990967,372.982635 516.300049,372.927795 
	C518.063293,371.221832 519.517578,369.570679 520.971863,367.919525 
	C522.050476,366.686707 523.129089,365.453888 524.827637,364.121857 
	C526.348022,364.374115 527.248596,364.725555 528.149109,365.077026 
	C528.591187,368.793060 529.033325,372.509064 529.314331,376.555206 
	C524.409668,380.704681 519.666016,384.524048 514.466431,387.896729 
	C513.952209,387.112793 513.894043,386.775543 513.835815,386.438293 
z"/>
<path fill="#988B76" opacity="1.000000" stroke="none" 
	d="
M204.272552,261.034302 
	C207.385757,260.248260 210.266373,259.651398 212.057312,259.280304 
	C211.879135,264.469391 211.717377,269.180298 211.932861,274.007812 
	C211.917892,275.520233 211.525665,276.916107 210.682266,278.772644 
	C209.241165,281.664642 208.251251,284.095947 207.265121,286.517914 
	C201.083801,284.081696 202.741165,278.292206 201.102844,274.049591 
	C201.155350,272.635834 201.207840,271.222076 201.631302,269.282471 
	C202.352066,267.178436 202.701874,265.600250 203.051666,264.022034 
	C203.381104,263.089172 203.710541,262.156281 204.272552,261.034302 
z"/>
<path fill="#988B76" opacity="1.000000" stroke="none" 
	d="
M204.804474,320.120422 
	C203.535156,315.352631 202.265839,310.584839 201.255249,305.113281 
	C201.083344,302.607422 200.652695,300.805267 200.222046,299.003143 
	C200.177811,298.543701 200.133575,298.084229 200.280807,297.117340 
	C200.342178,296.084717 200.212067,295.559509 200.081940,295.034332 
	C200.042984,294.580322 200.004013,294.126282 200.228302,293.042328 
	C200.885101,290.423370 201.278671,288.434326 201.739441,286.105713 
	C204.379486,287.987305 206.499634,289.498322 208.619766,291.009369 
	C208.461761,300.022430 208.303741,309.035461 207.777496,318.563599 
	C206.541016,319.425934 205.672745,319.773193 204.804474,320.120422 
z"/>
<path fill="#28251E" opacity="1.000000" stroke="none" 
	d="
M324.001221,432.413147 
	C316.899536,432.642822 321.340210,437.548279 319.492737,440.887787 
	C323.332611,440.887787 326.426300,440.743744 329.492310,440.971466 
	C330.472198,441.044281 331.378937,442.102234 332.319122,442.709473 
	C331.416321,443.170166 330.533325,443.974579 329.607025,444.028046 
	C326.645660,444.199066 323.668213,444.091553 319.969025,444.091553 
	C319.969025,446.626221 320.147949,448.894012 319.891113,451.111359 
	C319.768616,452.168671 318.817810,453.130066 318.242188,454.134888 
	C317.491577,453.260345 316.115112,452.403198 316.090240,451.508514 
	C315.905853,444.866760 315.884216,438.213898 316.111420,431.574799 
	C316.143066,430.650970 317.777588,429.061676 318.735382,429.010864 
	C323.664276,428.749451 328.614502,428.889679 333.689392,428.889679 
	C332.807831,432.425507 332.807831,432.425507 324.001221,432.413147 
z"/>
<path fill="#161510" opacity="1.000000" stroke="none" 
	d="
M265.850037,448.634338 
	C264.029877,449.972260 267.191589,455.809723 261.376404,453.102051 
	C260.987457,450.653503 260.956451,448.299164 261.088348,445.100708 
	C261.556763,439.229980 261.862305,434.203369 262.167877,429.176758 
	C264.409332,428.684753 265.103882,429.704376 265.020874,431.839813 
	C264.906616,434.779694 264.992279,437.727325 266.172729,441.509644 
	C270.138947,437.828217 274.105164,434.146790 278.071381,430.465363 
	C278.504822,430.900146 278.938232,431.334900 279.371674,431.769684 
	C276.907623,434.612122 274.443604,437.454559 271.749207,440.562744 
	C274.943634,444.144531 277.993652,447.564423 280.949463,451.591064 
	C280.159698,452.511932 279.464172,452.826019 278.768677,453.140137 
	C277.914246,452.291168 277.059814,451.442169 276.084412,450.000671 
	C275.366882,448.912872 274.770325,448.417572 274.173706,447.922241 
	C272.903259,446.452026 271.632782,444.981781 269.752869,442.806305 
	C268.164215,445.031952 267.012329,446.645630 265.850037,448.634338 
z"/>
<path fill="#918778" opacity="1.000000" stroke="none" 
	d="
M534.636719,371.061554 
	C534.325989,362.271881 534.325989,353.383118 534.325989,343.394287 
	C538.498474,348.424377 542.184265,352.867798 545.949341,357.639679 
	C542.334839,362.299591 538.641113,366.631042 534.636719,371.061554 
z"/>
<path fill="#3D3C36" opacity="1.000000" stroke="none" 
	d="
M594.669312,333.169312 
	C595.004089,350.416779 594.995972,367.802338 594.931519,385.663208 
	C594.511536,385.133087 593.834900,384.128906 593.830994,383.122070 
	C593.768616,367.143158 593.786560,351.163849 593.819092,335.184692 
	C593.820374,334.558624 594.149902,333.933167 594.669312,333.169312 
z"/>
<path fill="#9F9078" opacity="1.000000" stroke="none" 
	d="
M216.994034,246.001556 
	C213.273331,249.958038 209.552628,253.914505 205.510834,257.935791 
	C208.158737,251.943726 211.127747,245.886810 214.477875,240.093826 
	C214.326599,242.267075 213.794220,244.176376 213.041199,246.876953 
	C214.760056,246.496292 215.877045,246.248917 216.994034,246.001556 
z"/>
<path fill="#9F9078" opacity="1.000000" stroke="none" 
	d="
M208.795151,290.639130 
	C206.499634,289.498322 204.379486,287.987305 201.739441,286.105713 
	C201.278671,288.434326 200.885101,290.423370 200.256165,292.701141 
	C200.208282,286.882599 200.395782,280.775269 200.843063,274.358765 
	C202.741165,278.292206 201.083801,284.081696 207.265121,286.517914 
	C208.251251,284.095947 209.241165,281.664642 210.565308,279.116943 
	C210.256531,282.756683 209.613525,286.512787 208.795151,290.639130 
z"/>
<path fill="#988B76" opacity="1.000000" stroke="none" 
	d="
M216.996979,246.000519 
	C215.877045,246.248917 214.760056,246.496292 213.041199,246.876953 
	C213.794220,244.176376 214.326599,242.267075 214.794250,239.947052 
	C215.940903,237.463394 217.152313,235.390488 218.976639,233.086884 
	C220.015244,232.186279 220.440903,231.516388 220.866562,230.846497 
	C220.866562,230.846497 220.828308,230.937180 221.122498,230.938965 
	C221.610901,230.960403 221.805145,230.980057 221.999390,230.999710 
	C222.514023,232.501968 223.028656,234.004227 223.771423,236.129059 
	C223.995865,237.500046 223.992188,238.248505 223.988495,238.996948 
	C223.416489,239.492584 222.844482,239.988220 221.783234,240.756592 
	C219.863251,242.684219 218.432480,244.339127 217.001709,245.994034 
	C217.001709,245.994034 216.999939,245.999481 216.996979,246.000519 
M219.536102,238.145798 
	C219.836609,238.089050 220.137100,238.032288 220.437607,237.975540 
	C220.139618,237.906952 219.841629,237.838348 219.536102,238.145798 
z"/>
<path fill="#988B76" opacity="1.000000" stroke="none" 
	d="
M169.725922,402.413116 
	C171.826981,399.142883 174.164856,396.179718 176.832550,393.104950 
	C177.944199,393.254730 178.726013,393.516113 179.747223,394.002136 
	C181.321030,399.510895 176.169830,401.266663 173.951553,405.023560 
	C172.425537,404.419250 171.194138,403.569702 169.725922,402.413116 
z"/>
<path fill="#2D2C24" opacity="1.000000" stroke="none" 
	d="
M656.410706,372.526306 
	C657.363159,372.041290 658.773071,371.127258 660.214172,371.074890 
	C665.298218,370.890350 670.407471,371.238403 675.479248,370.927887 
	C679.836182,370.661133 682.445923,372.030212 682.839355,376.989014 
	C681.195740,373.095367 678.116760,371.901581 673.645264,372.260620 
	C668.087341,372.706940 662.472656,372.447235 656.410706,372.526306 
z"/>
<path fill="#302F28" opacity="1.000000" stroke="none" 
	d="
M372.585388,445.771118 
	C370.123108,445.967041 367.970886,446.139740 365.852295,445.945404 
	C365.132050,445.879333 364.496704,444.888214 363.822540,444.319824 
	C364.446411,443.732574 365.021606,442.716888 365.703400,442.639435 
	C367.653229,442.417969 369.694702,442.339264 371.594391,442.725159 
	C372.202301,442.848633 372.479889,444.598450 372.585388,445.771118 
z"/>
<path fill="#9C8E76" opacity="1.000000" stroke="none" 
	d="
M261.817810,429.082092 
	C261.862305,434.203369 261.556763,439.229980 261.013977,444.666992 
	C259.925476,439.976440 259.052826,434.878387 258.360840,429.755951 
	C258.345428,429.641785 260.386139,429.249817 261.817810,429.082092 
z"/>
<path fill="#9F9078" opacity="1.000000" stroke="none" 
	d="
M513.413208,386.549683 
	C513.894043,386.775543 513.952209,387.112793 514.109619,387.956726 
	C511.367035,390.553497 508.525330,392.643585 505.343384,394.719116 
	C505.347656,392.442444 505.692200,390.180328 506.020813,387.580322 
	C508.333466,387.048645 510.662079,386.854858 513.413208,386.549683 
z"/>
<path fill="#9F9078" opacity="1.000000" stroke="none" 
	d="
M515.601807,373.005493 
	C515.055176,375.873108 514.174072,378.834381 512.948059,381.992004 
	C511.642731,380.434326 510.682281,378.680328 509.736572,376.587860 
	C511.589935,375.199310 513.428589,374.149200 515.601807,373.005493 
z"/>
<path fill="#161510" opacity="1.000000" stroke="none" 
	d="
M628.782715,336.722717 
	C625.804749,339.748657 622.826843,342.774597 619.176941,345.853027 
	C617.915771,345.449310 617.326599,344.993103 616.737427,344.536926 
	C619.278259,341.797028 621.819092,339.057159 624.972656,336.158936 
	C626.013489,335.957306 626.441711,335.914001 627.338684,336.104919 
	C628.132507,336.466980 628.457642,336.594879 628.782715,336.722717 
z"/>
<path fill="#988B76" opacity="1.000000" stroke="none" 
	d="
M229.838272,229.704315 
	C228.307709,232.287598 226.418823,232.924744 224.095978,229.944611 
	C223.994843,228.445969 223.992752,227.669678 223.990662,226.893402 
	C224.139893,226.664780 224.308716,226.451675 224.633560,226.104279 
	C226.403824,227.107590 228.037659,228.260696 229.838272,229.704315 
z"/>
<path fill="#9F9078" opacity="1.000000" stroke="none" 
	d="
M528.550049,365.011841 
	C527.248596,364.725555 526.348022,364.374115 525.084656,363.951050 
	C526.183960,361.932495 527.646118,359.985535 529.434692,357.978577 
	C529.491028,360.261261 529.221008,362.603973 528.550049,365.011841 
z"/>
<path fill="#302F28" opacity="1.000000" stroke="none" 
	d="
M74.345657,342.935120 
	C76.204933,340.926575 76.656860,340.946136 76.872810,343.362274 
	C77.118248,346.108276 76.891426,348.896454 76.727402,352.152374 
	C75.979309,349.448975 75.373718,346.259521 74.345657,342.935120 
z"/>
<path fill="#302F28" opacity="1.000000" stroke="none" 
	d="
M84.598770,355.636597 
	C84.051346,352.149139 83.617134,348.215088 83.337860,343.794861 
	C83.899193,347.269135 84.305588,351.229553 84.598770,355.636597 
z"/>
<path fill="#302F28" opacity="1.000000" stroke="none" 
	d="
M76.815079,365.356689 
	C77.276711,368.524719 77.611351,372.062469 77.809273,376.077637 
	C77.344398,372.945496 77.016235,369.335968 76.815079,365.356689 
z"/>
<path fill="#2A2921" opacity="1.000000" stroke="none" 
	d="
M608.488525,356.239594 
	C607.868286,355.942139 607.587646,355.600006 607.038452,355.059937 
	C608.833435,352.607697 610.896973,350.353394 613.379395,348.532837 
	C613.888977,349.725494 613.979614,350.484406 614.070251,351.243286 
	C612.322815,352.893829 610.575439,354.544373 608.488525,356.239594 
z"/>
<path fill="#171512" opacity="1.000000" stroke="none" 
	d="
M478.481934,354.135010 
	C479.691589,351.259644 480.901245,348.384277 482.910919,345.537964 
	C484.100220,345.809265 484.489502,346.051453 484.896301,346.587280 
	C483.910126,349.247162 482.906433,351.613403 481.475342,354.001892 
	C480.192596,354.061096 479.337250,354.098053 478.481934,354.135010 
z"/>
<path fill="#2D2C24" opacity="1.000000" stroke="none" 
	d="
M686.984741,386.394409 
	C688.765320,384.734985 693.179382,388.503632 693.318604,382.683167 
	C694.038025,383.564178 694.664734,384.816376 695.809265,387.103516 
	C692.264832,386.930847 689.723999,386.807068 686.984741,386.394409 
z"/>
<path fill="#302F28" opacity="1.000000" stroke="none" 
	d="
M478.261963,354.370728 
	C479.337250,354.098053 480.192596,354.061096 481.474274,354.330750 
	C481.109375,356.129333 480.318115,357.621307 479.526886,359.113342 
	C478.987518,359.097351 478.448181,359.081390 477.504272,359.052246 
	C477.413849,357.561554 477.727966,356.083984 478.261963,354.370728 
z"/>
<path fill="#9F9078" opacity="1.000000" stroke="none" 
	d="
M209.876648,328.666138 
	C208.281143,328.303345 206.743698,327.594055 205.107819,326.586182 
	C205.269897,326.002441 205.530396,325.717285 206.324661,325.209900 
	C207.571472,324.990997 208.284515,324.994263 208.997559,324.997559 
	C209.309937,326.104919 209.622330,327.212280 209.876648,328.666138 
z"/>
<path fill="#302F28" opacity="1.000000" stroke="none" 
	d="
M660.516479,352.821655 
	C660.985046,354.037384 661.180542,355.471680 661.742310,357.229919 
	C661.738647,358.145447 661.368591,358.737030 660.998596,359.328583 
	C660.332336,359.228363 659.666138,359.128143 658.494507,359.012634 
	C658.740540,357.011627 659.492004,355.025940 660.516479,352.821655 
z"/>
<path fill="#302F28" opacity="1.000000" stroke="none" 
	d="
M85.394760,372.718109 
	C84.967659,370.938110 84.695503,368.777283 84.633011,366.329529 
	C85.078346,368.140869 85.314034,370.239044 85.394760,372.718109 
z"/>
<path fill="#3D3C36" opacity="1.000000" stroke="none" 
	d="
M594.997070,386.438446 
	C596.963440,386.059937 599.065247,385.994812 601.614319,385.982788 
	C599.751831,386.274536 597.442200,386.513184 594.997070,386.438446 
z"/>
<path fill="#9F9078" opacity="1.000000" stroke="none" 
	d="
M520.645874,368.005188 
	C519.517578,369.570679 518.063293,371.221832 516.260254,372.907471 
	C517.380859,371.324982 518.850342,369.707916 520.645874,368.005188 
z"/>
<path fill="#9F9078" opacity="1.000000" stroke="none" 
	d="
M204.827850,320.442383 
	C205.672745,319.773193 206.541016,319.425934 207.757050,319.031128 
	C208.375519,320.071259 208.646210,321.159027 208.695282,322.446808 
	C207.595200,322.794281 206.716751,322.941711 205.838318,323.089142 
	C205.509293,322.314209 205.180267,321.539276 204.827850,320.442383 
z"/>
<path fill="#9F9078" opacity="1.000000" stroke="none" 
	d="
M384.563110,258.846985 
	C385.393768,259.420929 385.929718,260.151825 386.810883,260.979187 
	C386.464996,261.736938 385.773895,262.398254 384.389648,263.067688 
	C383.167572,263.052917 382.638702,263.030029 382.109802,263.007172 
	C382.829346,261.672760 383.548859,260.338379 384.563110,258.846985 
z"/>
<path fill="#9F9078" opacity="1.000000" stroke="none" 
	d="
M200.153793,299.396301 
	C200.652695,300.805267 201.083344,302.607422 201.290253,304.688843 
	C200.739532,303.241913 200.412537,301.515656 200.153793,299.396301 
z"/>
<path fill="#302F28" opacity="1.000000" stroke="none" 
	d="
M86.060020,381.668762 
	C85.685471,380.224945 85.421837,378.461273 85.355461,376.412598 
	C85.758789,377.868042 85.964859,379.608490 86.060020,381.668762 
z"/>
<path fill="#2D2C24" opacity="1.000000" stroke="none" 
	d="
M646.534363,384.840271 
	C647.901123,384.803680 649.001343,384.929932 650.415039,385.005188 
	C649.646301,385.636230 648.564026,386.318298 647.481689,387.000366 
	C647.077026,386.334625 646.672363,385.668884 646.534363,384.840271 
z"/>
<path fill="#161510" opacity="1.000000" stroke="none" 
	d="
M631.186218,334.388611 
	C630.532715,335.126129 629.879150,335.863647 629.004150,336.661957 
	C628.457642,336.594879 628.132507,336.466980 627.377014,335.772491 
	C626.943115,334.757446 626.939636,334.309052 626.936157,333.860657 
	C628.038879,333.449921 629.141541,333.039185 630.654114,333.127441 
	C631.104736,333.880463 631.145508,334.134521 631.186218,334.388611 
z"/>
<path fill="#2A2921" opacity="1.000000" stroke="none" 
	d="
M616.436035,344.676147 
	C617.326599,344.993103 617.915771,345.449310 618.879578,345.990784 
	C618.411682,347.042511 617.569153,348.008972 616.177979,348.817688 
	C614.963074,348.380371 614.296753,348.100800 613.630432,347.821228 
	C614.465210,346.819305 615.299988,345.817352 616.436035,344.676147 
z"/>
<path fill="#9F9078" opacity="1.000000" stroke="none" 
	d="
M389.662842,251.037048 
	C388.899231,252.583984 387.820251,254.229904 386.408356,255.937637 
	C387.166138,254.378311 388.256805,252.757187 389.662842,251.037048 
z"/>
<path fill="#3D3C36" opacity="1.000000" stroke="none" 
	d="
M278.877747,453.428864 
	C279.464172,452.826019 280.159698,452.511932 281.093811,451.890259 
	C281.706299,452.326385 282.080200,453.070038 282.454132,453.813660 
	C281.298370,453.781647 280.142578,453.749634 278.877747,453.428864 
z"/>
<path fill="#302F28" opacity="1.000000" stroke="none" 
	d="
M65.546890,353.883911 
	C65.866074,354.181030 65.919090,354.698242 65.946167,355.606354 
	C65.126907,357.221954 64.333588,358.446686 63.263390,359.834900 
	C63.751251,358.033630 64.515991,356.068848 65.546890,353.883911 
z"/>
<path fill="#302F28" opacity="1.000000" stroke="none" 
	d="
M69.515747,344.811707 
	C69.150192,346.339874 68.530487,348.090515 67.580254,349.946289 
	C67.920349,348.378998 68.590981,346.706604 69.515747,344.811707 
z"/>
<path fill="#302F28" opacity="1.000000" stroke="none" 
	d="
M71.366745,348.998749 
	C71.726868,347.515045 72.345451,345.830383 73.278580,344.034485 
	C72.937157,345.548096 72.281181,347.172943 71.366745,348.998749 
z"/>
<path fill="#302F28" opacity="1.000000" stroke="none" 
	d="
M67.068329,356.421082 
	C67.735809,355.068756 68.369949,354.081055 69.289474,353.006958 
	C68.935326,354.565002 68.295792,356.209473 67.390503,358.048889 
	C67.094826,357.757812 67.064911,357.271759 67.068329,356.421082 
z"/>
<path fill="#9F9078" opacity="1.000000" stroke="none" 
	d="
M202.820251,264.263916 
	C202.701874,265.600250 202.352066,267.178436 201.745163,268.872620 
	C201.854980,267.494293 202.221893,266.000061 202.820251,264.263916 
z"/>
<path fill="#2D2C24" opacity="1.000000" stroke="none" 
	d="
M649.542969,377.813477 
	C649.186523,379.333099 648.578369,381.076416 647.648438,382.935242 
	C647.981567,381.379517 648.636414,379.708344 649.542969,377.813477 
z"/>
<path fill="#2D2C24" opacity="1.000000" stroke="none" 
	d="
M651.439575,383.153259 
	C651.778687,381.638397 652.374023,379.908966 653.285400,378.059875 
	C652.966248,379.606354 652.331055,381.272522 651.439575,383.153259 
z"/>
<path fill="#9F9078" opacity="1.000000" stroke="none" 
	d="
M223.700745,227.054291 
	C223.992752,227.669678 223.994843,228.445969 223.993958,229.609039 
	C223.495621,230.251740 223.000229,230.507645 222.252121,230.881622 
	C221.805145,230.980057 221.610901,230.960403 221.126801,230.889404 
	C221.694901,229.630432 222.552872,228.422821 223.700745,227.054291 
z"/>
<path fill="#9F9078" opacity="1.000000" stroke="none" 
	d="
M383.135651,265.055847 
	C382.360931,265.505951 381.586243,265.956085 380.811523,266.406189 
	C380.988068,265.639679 381.164612,264.873138 381.789062,264.220093 
	C382.536530,264.574310 382.836090,264.815094 383.135651,265.055847 
z"/>
<path fill="#988B76" opacity="1.000000" stroke="none" 
	d="
M205.860046,323.408813 
	C206.716751,322.941711 207.595200,322.794281 208.650818,322.794617 
	C208.895035,323.397583 208.962067,323.852783 209.013336,324.652771 
	C208.284515,324.994263 207.571472,324.990997 206.504852,324.984802 
	C206.061447,324.564056 205.971619,324.146271 205.860046,323.408813 
z"/>
<path fill="#302F28" opacity="1.000000" stroke="none" 
	d="
M58.577919,369.890076 
	C57.893097,370.721954 56.958786,371.784485 55.971050,372.552490 
	C56.721226,371.545532 57.524830,370.833160 58.577919,369.890076 
z"/>
<path fill="#9F9078" opacity="1.000000" stroke="none" 
	d="
M222.458588,250.257904 
	C222.896866,249.002365 223.639130,247.584961 224.729828,246.096924 
	C224.306335,247.382889 223.534454,248.739456 222.458588,250.257904 
z"/>
<path fill="#9F9078" opacity="1.000000" stroke="none" 
	d="
M401.316772,248.739700 
	C401.812347,247.875076 402.623688,246.990494 403.766907,246.070847 
	C403.276703,246.930435 402.454651,247.825089 401.316772,248.739700 
z"/>
<path fill="#161510" opacity="1.000000" stroke="none" 
	d="
M613.642700,347.833374 
	C614.296753,348.100800 614.963074,348.380371 615.873901,348.930969 
	C615.615662,349.798889 615.112976,350.395813 614.340271,351.117981 
	C613.979614,350.484406 613.888977,349.725494 613.722900,348.397003 
	C613.647461,347.827393 613.655029,347.845551 613.642700,347.833374 
z"/>
<path fill="#302F28" opacity="1.000000" stroke="none" 
	d="
M65.549500,362.342041 
	C65.641319,361.514618 65.973785,360.451324 66.601456,359.193817 
	C66.527824,360.035156 66.158981,361.070648 65.549500,362.342041 
z"/>
<path fill="#3D3C36" opacity="1.000000" stroke="none" 
	d="
M274.242493,448.206268 
	C274.770325,448.417572 275.366882,448.912872 275.973694,449.718750 
	C275.426331,449.516296 274.868774,449.003296 274.242493,448.206268 
z"/>
<path fill="#9F9078" opacity="1.000000" stroke="none" 
	d="
M226.391220,244.148834 
	C226.498428,243.579300 226.887131,242.870010 227.582062,242.065216 
	C227.483093,242.649521 227.077911,243.329300 226.391220,244.148834 
z"/>
<path fill="#9F9078" opacity="1.000000" stroke="none" 
	d="
M220.565643,230.925659 
	C220.440903,231.516388 220.015244,232.186279 219.272018,232.920639 
	C219.391220,232.325012 219.827988,231.664917 220.565643,230.925659 
z"/>
<path fill="#302F28" opacity="1.000000" stroke="none" 
	d="
M667.553711,336.777405 
	C667.575562,337.340881 667.367859,338.088287 666.878052,338.962189 
	C666.838745,338.379578 667.081482,337.670471 667.553711,336.777405 
z"/>
<path fill="#302F28" opacity="1.000000" stroke="none" 
	d="
M54.420578,368.785095 
	C53.955353,368.444061 53.536549,367.811829 53.165977,366.876709 
	C53.631805,367.213837 54.049400,367.853882 54.420578,368.785095 
z"/>
<path fill="#302F28" opacity="1.000000" stroke="none" 
	d="
M72.004471,339.222595 
	C72.101074,339.700867 71.941788,340.339264 71.534424,341.017395 
	C71.440422,340.499023 71.594505,339.940857 72.004471,339.222595 
z"/>
<path fill="#302F28" opacity="1.000000" stroke="none" 
	d="
M484.878784,346.293640 
	C484.489502,346.051453 484.100220,345.809265 483.097717,345.255798 
	C482.751099,344.210205 483.017731,343.475861 483.490845,342.610107 
	C483.884186,343.110992 484.071014,343.743256 484.541077,345.314911 
	C484.824371,346.254333 484.878784,346.293640 484.878784,346.293640 
z"/>
<path fill="#2A2921" opacity="1.000000" stroke="none" 
	d="
M626.644165,333.955383 
	C626.939636,334.309052 626.943115,334.757446 626.908264,335.538269 
	C626.441711,335.914001 626.013489,335.957306 625.261292,335.993958 
	C625.408997,335.341583 625.880615,334.695862 626.644165,333.955383 
z"/>
<path fill="#2A2921" opacity="1.000000" stroke="none" 
	d="
M631.410400,334.359253 
	C631.145508,334.134521 631.104736,333.880463 631.015808,333.243530 
	C631.383362,332.957367 631.799072,333.054138 632.214844,333.150940 
	C632.021423,333.543915 631.828003,333.936920 631.410400,334.359253 
z"/>
<path fill="#302F28" opacity="1.000000" stroke="none" 
	d="
M75.828629,332.732422 
	C75.614563,333.207764 75.190857,333.581390 74.480171,333.998535 
	C74.668457,333.571594 75.143723,333.101105 75.828629,332.732422 
z"/>
<path fill="#3D3C36" opacity="1.000000" stroke="none" 
	d="
M603.761597,357.543701 
	C603.615540,358.089355 603.097229,358.495453 602.310425,358.909241 
	C602.110535,358.407990 602.179138,357.899048 602.456421,357.233063 
	C602.906555,357.185394 603.147949,357.294769 603.761597,357.543701 
z"/>
<path fill="#302F28" opacity="1.000000" stroke="none" 
	d="
M62.583572,360.812683 
	C62.603001,361.362762 62.389660,362.084290 61.912064,362.943848 
	C61.882141,362.382629 62.116474,361.683380 62.583572,360.812683 
z"/>
<path fill="#302F28" opacity="1.000000" stroke="none" 
	d="
M655.354126,364.551971 
	C655.366943,365.162964 655.151917,365.985077 654.615540,366.930145 
	C654.571533,366.289764 654.848877,365.526459 655.354126,364.551971 
z"/>
<path fill="#302F28" opacity="1.000000" stroke="none" 
	d="
M53.010323,385.289154 
	C53.520851,385.015198 54.040012,385.031097 54.947094,385.086243 
	C54.562996,385.276642 53.790974,385.427826 53.010323,385.289154 
z"/>
<path fill="#302F28" opacity="1.000000" stroke="none" 
	d="
M61.538521,371.378540 
	C61.515152,370.788757 61.713917,369.993378 62.211464,369.063843 
	C62.260380,369.677429 62.010517,370.425201 61.538521,371.378540 
z"/>
<path fill="#2D2C24" opacity="1.000000" stroke="none" 
	d="
M651.348938,373.522827 
	C651.381958,374.135223 651.194885,374.964172 650.694458,375.925049 
	C650.630371,375.284424 650.879578,374.511902 651.348938,373.522827 
z"/>
<path fill="#302F28" opacity="1.000000" stroke="none" 
	d="
M57.521057,380.352020 
	C57.495201,379.756805 57.710522,378.976074 58.219837,378.062866 
	C58.263298,378.675751 58.012764,379.421143 57.521057,380.352020 
z"/>
<path fill="#2D2C24" opacity="1.000000" stroke="none" 
	d="
M692.344360,379.794006 
	C691.891357,379.467926 691.487793,378.857941 691.127014,377.959229 
	C691.577820,378.283661 691.985840,378.896881 692.344360,379.794006 
z"/>
<path fill="#302F28" opacity="1.000000" stroke="none" 
	d="
M50.609234,380.212769 
	C51.062840,380.563751 51.469769,381.206055 51.823822,382.150940 
	C51.368149,381.803680 50.965351,381.153900 50.609234,380.212769 
z"/>
<path fill="#9F9078" opacity="1.000000" stroke="none" 
	d="
M199.897461,295.188629 
	C200.212067,295.559509 200.342178,296.084717 200.310638,296.771790 
	C200.003662,296.403442 199.858337,295.873169 199.897461,295.188629 
z"/>
<path fill="#2D2C24" opacity="1.000000" stroke="none" 
	d="
M684.581177,382.220612 
	C685.020508,382.585175 685.443848,383.244843 685.796875,384.219391 
	C685.339417,383.861420 684.952332,383.188538 684.581177,382.220612 
z"/>
<path fill="#9F9078" opacity="1.000000" stroke="none" 
	d="
M213.167511,271.792786 
	C213.077423,271.350708 213.211960,270.729309 213.594757,270.054291 
	C213.692719,270.538269 213.542419,271.075836 213.167511,271.792786 
z"/>
<path fill="#9C8D75" opacity="1.000000" stroke="none" 
	d="
M383.320312,264.828796 
	C382.836090,264.815094 382.536530,264.574310 382.069946,264.096069 
	C381.902893,263.858551 381.958740,263.421509 382.034271,263.214355 
	C382.638702,263.030029 383.167572,263.052917 384.098022,263.105042 
	C384.168060,263.623474 383.836548,264.112640 383.320312,264.828796 
z"/>
<path fill="#302F28" opacity="1.000000" stroke="none" 
	d="
M83.204315,333.615387 
	C82.898422,333.743042 82.599937,333.529907 82.164673,333.074097 
	C82.422508,332.979156 82.817123,333.126862 83.204315,333.615387 
z"/>
<path fill="#C4C4B5" opacity="1.000000" stroke="none" 
	d="
M169.584290,352.069519 
	C169.978699,360.025452 170.009338,368.040771 169.989319,376.522583 
	C168.621338,373.010132 166.335556,369.051788 166.250214,365.046600 
	C166.158966,360.763733 168.142563,356.436676 169.584290,352.069519 
z"/>
<path fill="#CBCAB9" opacity="1.000000" stroke="none" 
	d="
M271.712158,358.299683 
	C269.313538,358.356567 267.373596,358.356567 265.148132,358.356567 
	C265.148132,351.064819 265.148132,344.167084 265.148132,337.012146 
	C267.324493,336.605225 269.404083,336.091644 271.514923,335.844940 
	C278.034058,335.083069 283.231079,338.823578 284.227936,344.885529 
	C285.361694,351.779907 282.173279,356.277710 275.112549,357.726440 
	C274.137695,357.926453 273.151672,358.072052 271.712158,358.299683 
z"/>
<path fill="#C4C4B5" opacity="1.000000" stroke="none" 
	d="
M484.896301,346.587280 
	C484.878784,346.293640 484.824371,346.254333 484.845398,346.255859 
	C485.362854,345.616577 485.859283,344.975830 487.115906,343.353882 
	C490.657654,352.025116 493.939636,360.060333 497.404053,368.542236 
	C490.088745,368.542236 483.583527,368.542236 476.328033,368.542236 
	C477.484039,365.325623 478.456848,362.618774 479.478271,359.512634 
	C480.318115,357.621307 481.109375,356.129333 481.901672,354.308472 
	C482.906433,351.613403 483.910126,349.247162 484.896301,346.587280 
z"/>
<path fill="#C4C4B5" opacity="1.000000" stroke="none" 
	d="
M660.941040,359.722351 
	C661.368591,358.737030 661.738647,358.145447 662.072754,357.281677 
	C663.915344,352.779449 665.793762,348.549408 668.079468,344.033112 
	C668.661987,343.817108 668.837280,343.887360 669.012573,343.957642 
	C672.177307,351.909302 675.342102,359.860931 678.761475,368.452454 
	C671.546692,368.452454 665.015747,368.452454 657.780701,368.452454 
	C658.868103,365.530914 659.875793,362.823517 660.941040,359.722351 
z"/>
<path fill="#302F28" opacity="1.000000" stroke="none" 
	d="
M668.966797,343.756165 
	C668.837280,343.887360 668.661987,343.817108 668.208984,343.691437 
	C668.261169,343.608917 668.591125,343.581787 668.966797,343.756165 
z"/>
<path fill="#BFBEB2" opacity="1.000000" stroke="none" 
	d="
M394.318970,443.218170 
	C395.877747,444.852386 397.014435,446.387817 398.151154,447.923248 
	C396.614197,448.919556 395.178680,450.487762 393.517273,450.782471 
	C390.808289,451.263000 387.951843,450.912201 384.777832,450.912201 
	C384.777832,448.230957 384.777832,445.861969 384.777832,443.119415 
	C388.016022,443.119415 390.956451,443.119415 394.318970,443.218170 
z"/>
<path fill="#BFBEB2" opacity="1.000000" stroke="none" 
	d="
M394.051392,432.598206 
	C395.218536,434.162018 396.740601,435.691498 396.553192,436.970490 
	C396.395294,438.048370 394.345398,439.399017 392.966248,439.628906 
	C390.410034,440.055084 387.732086,439.750977 384.749329,439.750977 
	C384.749329,437.216125 384.749329,434.991699 384.749329,432.050354 
	C387.850311,432.191193 390.757904,432.323242 394.051392,432.598206 
z"/>
<path fill="#BFBEB2" opacity="1.000000" stroke="none" 
	d="
M453.019043,437.926208 
	C451.250671,442.473297 444.736481,445.631683 441.870300,442.972076 
	C440.239990,441.459320 440.469452,437.613953 440.505280,434.827332 
	C440.516541,433.952637 442.650238,432.344147 443.766724,432.383118 
	C447.588867,432.516479 452.172791,431.861450 453.019043,437.926208 
z"/>
<path fill="#9F9078" opacity="1.000000" stroke="none" 
	d="
M224.353439,238.985443 
	C223.992188,238.248505 223.995865,237.500046 224.000076,236.377411 
	C225.734512,235.252350 227.468399,234.501465 229.202286,233.750595 
	C229.514404,234.116028 229.826508,234.481476 230.138626,234.846924 
	C228.331879,236.222595 226.525131,237.598251 224.353439,238.985443 
z"/>
<path fill="#9F9078" opacity="1.000000" stroke="none" 
	d="
M217.365631,245.983032 
	C218.432480,244.339127 219.863251,242.684219 221.645493,241.009552 
	C220.574493,242.650543 219.152023,244.311295 217.365631,245.983032 
z"/>
<path fill="#BFBEB2" opacity="1.000000" stroke="none" 
	d="
M421.365601,444.918091 
	C418.680573,444.979950 416.409698,444.979950 413.194916,444.979950 
	C414.919861,440.953369 416.313812,437.699371 417.707794,434.445343 
	C418.295074,434.379852 418.882355,434.314331 419.469604,434.248840 
	C420.239655,437.784637 421.009705,441.320465 421.365601,444.918091 
z"/>
<path fill="#BFBEB2" opacity="1.000000" stroke="none" 
	d="
M298.659851,434.846924 
	C300.173859,438.080688 301.456696,441.066071 302.980713,444.612610 
	C299.548370,444.612610 296.773926,444.612610 292.492554,444.612610 
	C294.813171,440.697845 296.620972,437.648193 298.659851,434.846924 
z"/>
<path fill="#9F9078" opacity="1.000000" stroke="none" 
	d="
M219.539871,237.957779 
	C219.841629,237.838348 220.139618,237.906952 220.437607,237.975540 
	C220.137100,238.032288 219.836609,238.089050 219.539871,237.957779 
z"/>
</svg>